<svg width="406" height="165" viewBox="0 0 406 165" fill="none" xmlns="http://www.w3.org/2000/svg">
<rect width="54.7632" height="53.7676" transform="translate(55.5 55.5)" fill="#202024"/>
<g clip-path="url(#clip0_29_2646)">
<rect width="28.7632" height="28.7632" transform="translate(68.5 68.002)" fill="#202024"/>
<path d="M82.8815 74.4251L79.9185 70.8017C79.9185 70.8017 74.8289 70.9072 69.7642 73.2649C71.0619 75.2218 73.6362 76.1845 73.6362 76.1845C73.811 74.4605 75.0208 74.0387 78.8566 74.0387L82.8805 96.7653L86.9045 74.0377C90.7412 74.0377 91.9501 74.4605 92.1248 76.1835C92.1248 76.1835 94.6992 75.2199 95.9969 73.264C90.9322 70.9072 85.8426 70.8008 85.8426 70.8008L82.8796 74.4241L82.8815 74.4251Z" fill="white"/>
<path d="M82.8797 68.002C82.8081 68.002 82.7384 68.0029 82.6696 68.0048C78.4882 68.0451 73.6555 68.769 68.5 70.817C68.5 70.817 68.6642 71.329 69.3059 72.4872C74.1033 70.3884 78.7899 69.7211 82.8835 69.7518C82.8959 69.7518 82.9074 69.7518 82.9189 69.7518C87.0029 69.7249 91.6752 70.3942 96.4563 72.4872C97.098 71.3281 97.2623 70.817 97.2623 70.817C92.019 68.7335 87.108 68.0202 82.8797 68.002Z" fill="white"/>
</g>
<path d="M143.033 80.2676L137.66 60.5527H141.078L144.427 73.1309C144.537 73.5866 144.637 74.0378 144.728 74.4844C144.819 74.9219 144.892 75.3229 144.947 75.6875H145.029C145.093 75.3229 145.17 74.9173 145.261 74.4707C145.361 74.0241 145.471 73.5775 145.589 73.1309L149.076 60.5527H151.851L155.337 73.1309C155.456 73.5775 155.561 74.0241 155.652 74.4707C155.752 74.9173 155.839 75.3184 155.912 75.6738H155.994C156.048 75.3184 156.117 74.9173 156.199 74.4707C156.29 74.0241 156.39 73.5775 156.5 73.1309L159.849 60.5527H163.267L157.908 80.2676H154.49L151.058 67.7305C150.858 66.9557 150.68 66.1582 150.525 65.3379H150.443C150.279 66.1582 150.092 66.9603 149.882 67.7441L146.437 80.2676H143.033ZM167.26 80.5137C166.367 80.5137 165.583 80.3405 164.908 79.9941C164.234 79.6478 163.719 79.1647 163.363 78.5449C163.017 77.916 162.844 77.2005 162.844 76.3984C162.844 75.1771 163.231 74.2383 164.006 73.582C164.781 72.9167 165.87 72.4701 167.273 72.2422L170.418 71.75C170.71 71.7227 170.938 71.6771 171.102 71.6133C171.275 71.5404 171.407 71.4355 171.498 71.2988C171.589 71.153 171.635 70.9753 171.635 70.7656C171.635 70.3737 171.53 70.0228 171.32 69.7129C171.12 69.403 170.824 69.1615 170.432 68.9883C170.04 68.8151 169.57 68.7285 169.023 68.7285C168.522 68.7285 168.085 68.8014 167.711 68.9473C167.337 69.0931 167.041 69.3027 166.822 69.5762C166.604 69.8496 166.467 70.1777 166.412 70.5605H163.186C163.277 69.6309 163.568 68.8242 164.061 68.1406C164.553 67.457 165.223 66.9329 166.07 66.5684C166.927 66.2038 167.925 66.0215 169.065 66.0215C170.259 66.0215 171.293 66.2129 172.168 66.5957C173.043 66.9785 173.713 67.5299 174.178 68.25C174.652 68.9701 174.889 69.8223 174.889 70.8066V80.2676H171.635V78.1484H171.525C171.115 78.9049 170.555 79.4883 169.844 79.8984C169.133 80.3086 168.272 80.5137 167.26 80.5137ZM168.231 77.875C168.941 77.875 169.552 77.7109 170.063 77.3828C170.582 77.0456 170.974 76.5944 171.238 76.0293C171.503 75.4642 171.635 74.8535 171.635 74.1973V73.6504C171.498 73.7415 171.339 73.8145 171.156 73.8691C170.974 73.9238 170.742 73.9785 170.459 74.0332L167.766 74.457C167.283 74.5299 166.891 74.7077 166.59 74.9902C166.289 75.2637 166.139 75.6465 166.139 76.1387C166.139 76.4941 166.221 76.804 166.385 77.0684C166.549 77.3236 166.79 77.5241 167.109 77.6699C167.438 77.8066 167.811 77.875 168.231 77.875ZM180.529 80.2676H177.179V60.5527H180.529V80.2676ZM186.401 80.2676H183.051V60.5527H186.401V80.2676ZM204.148 80.5957C202.206 80.5957 200.506 80.1628 199.048 79.2969C197.59 78.4219 196.464 77.2142 195.671 75.6738C194.878 74.1335 194.482 72.3789 194.482 70.4102C194.482 68.4414 194.874 66.6868 195.657 65.1465C196.45 63.6061 197.571 62.403 199.021 61.5371C200.47 60.6621 202.156 60.2246 204.079 60.2246C205.638 60.2246 207.037 60.5208 208.277 61.1133C209.525 61.7057 210.542 62.5488 211.325 63.6426C212.109 64.7272 212.62 65.9941 212.857 67.4434H209.316C209.133 66.5866 208.805 65.8483 208.331 65.2285C207.857 64.5996 207.26 64.1211 206.54 63.793C205.829 63.4557 205.027 63.2871 204.134 63.2871C202.931 63.2871 201.874 63.597 200.962 64.2168C200.051 64.8275 199.349 65.6751 198.857 66.7598C198.364 67.8444 198.118 69.0658 198.118 70.4238C198.118 71.8548 198.36 73.1081 198.843 74.1836C199.335 75.25 200.032 76.0749 200.935 76.6582C201.846 77.2415 202.908 77.5332 204.12 77.5332C205.05 77.5332 205.879 77.3509 206.609 76.9863C207.347 76.6217 207.948 76.1204 208.413 75.4824C208.887 74.8353 209.197 74.097 209.343 73.2676H212.884C212.72 74.6895 212.255 75.9564 211.489 77.0684C210.724 78.1712 209.712 79.0371 208.454 79.666C207.196 80.2858 205.761 80.5957 204.148 80.5957ZM221.081 80.582C219.759 80.582 218.556 80.2812 217.471 79.6797C216.396 79.069 215.548 78.2122 214.928 77.1094C214.308 75.9974 213.998 74.7305 213.998 73.3086C213.998 71.8867 214.304 70.6243 214.915 69.5215C215.525 68.4186 216.373 67.5573 217.457 66.9375C218.542 66.3177 219.754 66.0078 221.094 66.0078C222.452 66.0078 223.669 66.3177 224.745 66.9375C225.82 67.5482 226.659 68.4049 227.26 69.5078C227.871 70.6107 228.176 71.8776 228.176 73.3086C228.176 74.7396 227.866 76.0065 227.247 77.1094C226.636 78.2122 225.788 79.069 224.704 79.6797C223.628 80.2812 222.42 80.582 221.081 80.582ZM221.081 77.7793C221.773 77.7793 222.398 77.6016 222.954 77.2461C223.519 76.8815 223.965 76.362 224.293 75.6875C224.622 75.013 224.786 74.2201 224.786 73.3086C224.786 72.3971 224.622 71.6042 224.293 70.9297C223.974 70.2552 223.532 69.7357 222.967 69.3711C222.411 69.0065 221.782 68.8242 221.081 68.8242C220.388 68.8242 219.759 69.0065 219.194 69.3711C218.638 69.7357 218.196 70.2552 217.868 70.9297C217.549 71.6042 217.389 72.3971 217.389 73.3086C217.389 74.2201 217.553 75.013 217.881 75.6875C218.209 76.3529 218.651 76.8678 219.207 77.2324C219.763 77.597 220.388 77.7793 221.081 77.7793ZM229.889 80.2676V66.3223H233.239V68.4961H233.348C233.731 67.7122 234.278 67.1016 234.989 66.6641C235.7 66.2266 236.547 66.0078 237.532 66.0078C238.58 66.0078 239.468 66.2357 240.198 66.6914C240.936 67.138 241.487 67.7715 241.852 68.5918C242.226 69.4121 242.412 70.3919 242.412 71.5312V80.2676H239.063V72.0234C239.063 71.0391 238.821 70.2826 238.338 69.7539C237.864 69.2161 237.203 68.9473 236.356 68.9473C235.718 68.9473 235.166 69.0931 234.702 69.3848C234.237 69.6673 233.877 70.0592 233.621 70.5605C233.366 71.0618 233.239 71.6224 233.239 72.2422V80.2676H229.889ZM244.59 80.2676V66.3223H247.94V68.4961H248.049C248.432 67.7122 248.979 67.1016 249.69 66.6641C250.401 66.2266 251.248 66.0078 252.233 66.0078C253.281 66.0078 254.17 66.2357 254.899 66.6914C255.637 67.138 256.188 67.7715 256.553 68.5918C256.927 69.4121 257.114 70.3919 257.114 71.5312V80.2676H253.764V72.0234C253.764 71.0391 253.522 70.2826 253.039 69.7539C252.565 69.2161 251.905 68.9473 251.057 68.9473C250.419 68.9473 249.867 69.0931 249.403 69.3848C248.938 69.6673 248.578 70.0592 248.323 70.5605C248.067 71.0618 247.94 71.6224 247.94 72.2422V80.2676H244.59ZM265.693 80.5684C264.298 80.5684 263.082 80.2676 262.043 79.666C261.003 79.0553 260.201 78.1986 259.636 77.0957C259.071 75.9928 258.789 74.7305 258.789 73.3086C258.789 71.8503 259.076 70.5697 259.65 69.4668C260.233 68.3639 261.045 67.5163 262.084 66.9238C263.123 66.3223 264.321 66.0215 265.679 66.0215C267.001 66.0215 268.154 66.3132 269.138 66.8965C270.123 67.4707 270.879 68.2819 271.408 69.3301C271.946 70.3691 272.214 71.5723 272.214 72.9395C272.214 73.1309 272.205 73.3451 272.187 73.582C272.178 73.8099 272.164 74.0378 272.146 74.2656H262.043C262.143 75.0495 262.357 75.7103 262.685 76.248C263.013 76.7858 263.437 77.1823 263.957 77.4375C264.485 77.6927 265.096 77.8203 265.789 77.8203C266.545 77.8203 267.188 77.6471 267.716 77.3008C268.254 76.9453 268.623 76.4668 268.824 75.8652H272.078C271.914 76.804 271.54 77.6289 270.957 78.3398C270.382 79.0417 269.64 79.5885 268.728 79.9805C267.817 80.3724 266.805 80.5684 265.693 80.5684ZM268.906 71.8457C268.86 71.1712 268.701 70.5833 268.427 70.082C268.163 69.5716 267.789 69.1888 267.306 68.9336C266.823 68.6693 266.267 68.5371 265.638 68.5371C265.055 68.5371 264.513 68.651 264.011 68.8789C263.519 69.0977 263.104 69.4531 262.767 69.9453C262.43 70.4375 262.202 71.071 262.084 71.8457H268.906ZM280.671 80.582C279.413 80.582 278.246 80.3177 277.171 79.7891C276.104 79.2513 275.248 78.4447 274.6 77.3691C273.953 76.2845 273.63 74.9583 273.63 73.3906C273.63 71.8503 273.935 70.5286 274.546 69.4258C275.166 68.3229 276.004 67.4798 277.061 66.8965C278.128 66.304 279.326 66.0078 280.657 66.0078C281.906 66.0078 282.995 66.2585 283.925 66.7598C284.863 67.2611 285.602 67.9401 286.14 68.7969C286.686 69.6536 287.019 70.6107 287.138 71.668H283.897C283.815 71.1211 283.642 70.6289 283.378 70.1914C283.113 69.7539 282.753 69.4076 282.298 69.1523C281.851 68.888 281.313 68.7559 280.684 68.7559C279.937 68.7559 279.285 68.9427 278.729 69.3164C278.173 69.6901 277.745 70.2233 277.444 70.916C277.143 71.6087 276.993 72.4108 276.993 73.3223C276.993 74.2702 277.153 75.0859 277.472 75.7695C277.791 76.444 278.228 76.959 278.784 77.3145C279.34 77.6608 279.964 77.834 280.657 77.834C281.268 77.834 281.801 77.7109 282.257 77.4648C282.722 77.2096 283.086 76.8724 283.35 76.4531C283.624 76.0247 283.811 75.5599 283.911 75.0586H287.138C287.019 76.0703 286.691 76.9954 286.153 77.834C285.625 78.6634 284.891 79.3288 283.952 79.8301C283.013 80.3314 281.919 80.582 280.671 80.582ZM294.415 80.4727C293.321 80.4727 292.451 80.2949 291.803 79.9395C291.165 79.5749 290.71 79.0872 290.436 78.4766C290.172 77.8568 290.04 77.123 290.04 76.2754V69.084H287.702V66.3359H290.04V62.5488H293.403V66.3359H296.493V69.084H293.403V76.0977C293.403 76.5807 293.549 76.959 293.841 77.2324C294.141 77.5059 294.624 77.6426 295.29 77.6426C295.664 77.6426 296.051 77.6061 296.452 77.5332V80.1582C295.787 80.3678 295.108 80.4727 294.415 80.4727ZM304.539 80.582C303.218 80.582 302.014 80.2812 300.93 79.6797C299.854 79.069 299.007 78.2122 298.387 77.1094C297.767 75.9974 297.457 74.7305 297.457 73.3086C297.457 71.8867 297.762 70.6243 298.373 69.5215C298.984 68.4186 299.831 67.5573 300.916 66.9375C302.001 66.3177 303.213 66.0078 304.553 66.0078C305.911 66.0078 307.128 66.3177 308.203 66.9375C309.279 67.5482 310.117 68.4049 310.719 69.5078C311.329 70.6107 311.635 71.8776 311.635 73.3086C311.635 74.7396 311.325 76.0065 310.705 77.1094C310.094 78.2122 309.247 79.069 308.162 79.6797C307.087 80.2812 305.879 80.582 304.539 80.582ZM304.539 77.7793C305.232 77.7793 305.856 77.6016 306.412 77.2461C306.977 76.8815 307.424 76.362 307.752 75.6875C308.08 75.013 308.244 74.2201 308.244 73.3086C308.244 72.3971 308.08 71.6042 307.752 70.9297C307.433 70.2552 306.991 69.7357 306.426 69.3711C305.87 69.0065 305.241 68.8242 304.539 68.8242C303.846 68.8242 303.218 69.0065 302.652 69.3711C302.096 69.7357 301.654 70.2552 301.326 70.9297C301.007 71.6042 300.848 72.3971 300.848 73.3086C300.848 74.2201 301.012 75.013 301.34 75.6875C301.668 76.3529 302.11 76.8678 302.666 77.2324C303.222 77.597 303.846 77.7793 304.539 77.7793ZM313.348 80.2676V66.3223H316.697V69.1113H316.793C317.13 68.1452 317.631 67.4251 318.297 66.9512C318.971 66.4772 319.792 66.2402 320.758 66.2402C321.141 66.2402 321.409 66.2585 321.564 66.2949V69.4395C321.455 69.4212 321.327 69.4076 321.182 69.3984C321.036 69.3802 320.895 69.3711 320.758 69.3711C319.956 69.3711 319.249 69.5352 318.639 69.8633C318.028 70.1914 317.549 70.6608 317.203 71.2715C316.866 71.873 316.697 72.5794 316.697 73.3906V80.2676H313.348Z" fill="#202024"/>
<path d="M147.722 109.582C145.826 109.582 144.158 109.154 142.718 108.297C141.287 107.431 140.18 106.228 139.396 104.688C138.621 103.147 138.234 101.393 138.234 99.4238C138.234 97.446 138.621 95.6868 139.396 94.1465C140.18 92.597 141.283 91.3893 142.705 90.5234C144.136 89.6576 145.794 89.2246 147.681 89.2246C149.185 89.2246 150.539 89.5117 151.742 90.0859C152.954 90.6602 153.947 91.4759 154.722 92.5332C155.497 93.5905 155.998 94.821 156.226 96.2246H153.41C153.209 95.2858 152.845 94.4792 152.316 93.8047C151.796 93.1211 151.145 92.597 150.361 92.2324C149.577 91.8678 148.697 91.6855 147.722 91.6855C146.419 91.6855 145.266 92.0182 144.263 92.6836C143.27 93.3398 142.5 94.2559 141.953 95.4316C141.406 96.6074 141.132 97.9427 141.132 99.4375C141.132 100.978 141.401 102.331 141.939 103.498C142.486 104.656 143.256 105.549 144.25 106.178C145.243 106.807 146.391 107.121 147.695 107.121C148.716 107.121 149.627 106.925 150.429 106.533C151.24 106.132 151.901 105.581 152.412 104.879C152.931 104.177 153.268 103.384 153.423 102.5H156.267C156.076 103.876 155.606 105.102 154.859 106.178C154.111 107.244 153.127 108.078 151.906 108.68C150.684 109.281 149.29 109.582 147.722 109.582ZM164.3 109.568C162.923 109.568 161.729 109.263 160.718 108.652C159.706 108.042 158.931 107.189 158.393 106.096C157.856 105.002 157.587 103.758 157.587 102.363C157.587 100.905 157.869 99.6335 158.434 98.5488C158.999 97.4642 159.788 96.6302 160.8 96.0469C161.811 95.4635 162.969 95.1719 164.272 95.1719C165.548 95.1719 166.66 95.459 167.608 96.0332C168.556 96.6074 169.285 97.4095 169.796 98.4395C170.306 99.4603 170.561 100.636 170.561 101.967C170.561 102.14 170.557 102.331 170.548 102.541C170.539 102.742 170.525 102.951 170.507 103.17H160.212C160.285 104.045 160.499 104.797 160.854 105.426C161.219 106.046 161.697 106.51 162.29 106.82C162.891 107.121 163.584 107.271 164.368 107.271C165.225 107.271 165.954 107.066 166.555 106.656C167.166 106.237 167.585 105.663 167.813 104.934H170.452C170.27 105.863 169.896 106.679 169.331 107.381C168.775 108.074 168.059 108.611 167.184 108.994C166.318 109.377 165.357 109.568 164.3 109.568ZM167.882 101.051C167.845 100.294 167.677 99.6289 167.376 99.0547C167.075 98.4805 166.651 98.0384 166.104 97.7285C165.567 97.4186 164.942 97.2637 164.231 97.2637C163.557 97.2637 162.937 97.4004 162.372 97.6738C161.807 97.9382 161.337 98.3529 160.964 98.918C160.599 99.4831 160.358 100.194 160.239 101.051H167.882ZM172.633 109.268V95.4727H175.34V98.1523H175.436C175.782 97.2318 176.297 96.5436 176.981 96.0879C177.664 95.6322 178.494 95.4043 179.469 95.4043C179.815 95.4043 180.048 95.4134 180.166 95.4316V98.0156C180.066 97.9974 179.952 97.9837 179.824 97.9746C179.706 97.9655 179.587 97.9609 179.469 97.9609C178.639 97.9609 177.915 98.1341 177.295 98.4805C176.675 98.8177 176.192 99.3008 175.846 99.9297C175.509 100.549 175.34 101.274 175.34 102.104V109.268H172.633ZM187.658 109.445C186.665 109.445 185.872 109.281 185.279 108.953C184.687 108.616 184.259 108.16 183.994 107.586C183.739 107.012 183.611 106.328 183.611 105.535V97.7969H181.219V95.4863H183.611V91.6992H186.332V95.4863H189.504V97.7969H186.332V105.398C186.332 105.909 186.487 106.319 186.797 106.629C187.116 106.93 187.64 107.08 188.369 107.08C188.716 107.08 189.085 107.048 189.477 106.984V109.186C188.893 109.359 188.287 109.445 187.658 109.445ZM192.574 93.3262C192.245 93.3262 191.949 93.2533 191.685 93.1074C191.43 92.9525 191.229 92.7474 191.083 92.4922C190.938 92.2279 190.865 91.9362 190.865 91.6172C190.865 91.2891 190.938 90.9974 191.083 90.7422C191.229 90.4779 191.43 90.2728 191.685 90.127C191.949 89.972 192.245 89.8945 192.574 89.8945C192.902 89.8945 193.193 89.972 193.449 90.127C193.704 90.2728 193.904 90.4779 194.05 90.7422C194.205 90.9974 194.283 91.2891 194.283 91.6172C194.283 91.9362 194.205 92.2279 194.05 92.4922C193.904 92.7474 193.704 92.9525 193.449 93.1074C193.193 93.2533 192.902 93.3262 192.574 93.3262ZM191.22 109.268V95.4727H193.927V109.268H191.22ZM202.342 89.0469C202.579 89.0469 202.83 89.0605 203.094 89.0879C203.359 89.1152 203.614 89.1562 203.86 89.2109H203.887V91.3984C203.587 91.3255 203.249 91.2891 202.876 91.2891C202.11 91.2891 201.563 91.4759 201.235 91.8496C200.916 92.2233 200.756 92.7109 200.756 93.3125V95.4863H203.887V97.7969H200.756V109.268H198.036V97.7969H195.452V95.4863H198.036V93.2988C198.036 92.4694 198.191 91.7402 198.501 91.1113C198.811 90.4733 199.284 89.972 199.922 89.6074C200.561 89.2337 201.367 89.0469 202.342 89.0469ZM206.779 93.3262C206.451 93.3262 206.155 93.2533 205.891 93.1074C205.635 92.9525 205.435 92.7474 205.289 92.4922C205.143 92.2279 205.07 91.9362 205.07 91.6172C205.07 91.2891 205.143 90.9974 205.289 90.7422C205.435 90.4779 205.635 90.2728 205.891 90.127C206.155 89.972 206.451 89.8945 206.779 89.8945C207.107 89.8945 207.399 89.972 207.654 90.127C207.909 90.2728 208.11 90.4779 208.256 90.7422C208.411 90.9974 208.488 91.2891 208.488 91.6172C208.488 91.9362 208.411 92.2279 208.256 92.4922C208.11 92.7474 207.909 92.9525 207.654 93.1074C207.399 93.2533 207.107 93.3262 206.779 93.3262ZM205.426 109.268V95.4727H208.133V109.268H205.426ZM216.903 109.568C215.527 109.568 214.333 109.263 213.321 108.652C212.31 108.042 211.535 107.189 210.997 106.096C210.459 105.002 210.191 103.758 210.191 102.363C210.191 100.905 210.473 99.6335 211.038 98.5488C211.603 97.4642 212.392 96.6302 213.403 96.0469C214.415 95.4635 215.573 95.1719 216.876 95.1719C218.152 95.1719 219.264 95.459 220.212 96.0332C221.16 96.6074 221.889 97.4095 222.4 98.4395C222.91 99.4603 223.165 100.636 223.165 101.967C223.165 102.14 223.161 102.331 223.152 102.541C223.142 102.742 223.129 102.951 223.111 103.17H212.816C212.889 104.045 213.103 104.797 213.458 105.426C213.823 106.046 214.301 106.51 214.894 106.82C215.495 107.121 216.188 107.271 216.972 107.271C217.829 107.271 218.558 107.066 219.159 106.656C219.77 106.237 220.189 105.663 220.417 104.934H223.056C222.874 105.863 222.5 106.679 221.935 107.381C221.379 108.074 220.663 108.611 219.788 108.994C218.922 109.377 217.961 109.568 216.903 109.568ZM220.486 101.051C220.449 100.294 220.28 99.6289 219.98 99.0547C219.679 98.4805 219.255 98.0384 218.708 97.7285C218.17 97.4186 217.546 97.2637 216.835 97.2637C216.161 97.2637 215.541 97.4004 214.976 97.6738C214.411 97.9382 213.941 98.3529 213.568 98.918C213.203 99.4831 212.961 100.194 212.843 101.051H220.486ZM230.623 109.568C229.512 109.568 228.504 109.286 227.602 108.721C226.709 108.146 226.002 107.322 225.483 106.246C224.972 105.161 224.717 103.876 224.717 102.391C224.717 100.951 224.968 99.6836 225.469 98.5898C225.98 97.4961 226.677 96.653 227.561 96.0605C228.454 95.4681 229.48 95.1719 230.637 95.1719C231.33 95.1719 231.977 95.2767 232.579 95.4863C233.18 95.6868 233.713 95.9785 234.178 96.3613C234.652 96.7441 235.035 97.1908 235.327 97.7012H235.409V89.6348H238.129V109.268H235.409V107.039H235.327C235.008 107.586 234.607 108.046 234.123 108.42C233.65 108.794 233.112 109.076 232.51 109.268C231.909 109.468 231.28 109.568 230.623 109.568ZM231.485 107.189C232.278 107.189 232.971 106.993 233.563 106.602C234.165 106.21 234.629 105.654 234.957 104.934C235.295 104.204 235.463 103.357 235.463 102.391C235.463 101.443 235.299 100.604 234.971 99.875C234.643 99.1367 234.178 98.5671 233.577 98.166C232.975 97.765 232.273 97.5645 231.471 97.5645C230.687 97.5645 229.99 97.7604 229.379 98.1523C228.778 98.5443 228.308 99.1003 227.971 99.8203C227.634 100.54 227.465 101.393 227.465 102.377C227.465 103.361 227.638 104.218 227.985 104.947C228.331 105.667 228.805 106.223 229.407 106.615C230.017 106.998 230.71 107.189 231.485 107.189ZM247.536 109.268V89.5527H250.38V109.268H247.536ZM253.491 109.268V95.4727H256.198V97.7148H256.307C256.681 96.9128 257.232 96.2884 257.961 95.8418C258.69 95.3861 259.561 95.1582 260.573 95.1582C261.621 95.1582 262.514 95.3815 263.252 95.8281C264 96.2747 264.56 96.9082 264.934 97.7285C265.308 98.5488 265.494 99.5241 265.494 100.654V109.268H262.774V101.023C262.774 99.9115 262.505 99.0547 261.967 98.4531C261.438 97.8516 260.696 97.5508 259.739 97.5508C259.009 97.5508 258.38 97.7194 257.852 98.0566C257.323 98.3848 256.913 98.8359 256.621 99.4102C256.339 99.9753 256.198 100.604 256.198 101.297V109.268H253.491ZM273.048 109.582C271.244 109.582 269.831 109.176 268.81 108.365C267.798 107.545 267.247 106.378 267.156 104.865H269.863C269.908 105.658 270.2 106.278 270.738 106.725C271.276 107.171 272.041 107.395 273.035 107.395C273.946 107.395 274.648 107.226 275.14 106.889C275.632 106.551 275.874 106.118 275.865 105.59C275.856 105.134 275.751 104.774 275.55 104.51C275.35 104.245 275.017 104.031 274.552 103.867C274.087 103.703 273.408 103.539 272.515 103.375C271.312 103.156 270.364 102.892 269.671 102.582C268.979 102.272 268.468 101.862 268.14 101.352C267.821 100.841 267.657 100.199 267.648 99.4238C267.639 98.6035 267.835 97.8743 268.236 97.2363C268.646 96.5983 269.257 96.097 270.068 95.7324C270.888 95.3587 271.85 95.1719 272.953 95.1719C274.074 95.1719 275.049 95.3496 275.878 95.7051C276.708 96.0514 277.346 96.5573 277.793 97.2227C278.248 97.888 278.485 98.6901 278.503 99.6289H275.865C275.81 98.9089 275.537 98.3529 275.045 97.9609C274.561 97.5599 273.873 97.3594 272.98 97.3594C272.433 97.3594 271.959 97.4323 271.558 97.5781C271.166 97.724 270.865 97.929 270.656 98.1934C270.446 98.4577 270.346 98.7676 270.355 99.123C270.355 99.5241 270.451 99.8385 270.642 100.066C270.834 100.285 271.157 100.472 271.613 100.627C272.069 100.782 272.725 100.937 273.582 101.092C274.821 101.32 275.796 101.589 276.507 101.898C277.227 102.208 277.761 102.623 278.107 103.143C278.453 103.653 278.631 104.309 278.64 105.111C278.649 106.005 278.44 106.784 278.011 107.449C277.583 108.115 276.949 108.639 276.111 109.021C275.281 109.395 274.261 109.582 273.048 109.582ZM285.921 109.445C284.927 109.445 284.134 109.281 283.542 108.953C282.949 108.616 282.521 108.16 282.257 107.586C282.001 107.012 281.874 106.328 281.874 105.535V97.7969H279.481V95.4863H281.874V91.6992H284.595V95.4863H287.766V97.7969H284.595V105.398C284.595 105.909 284.75 106.319 285.059 106.629C285.378 106.93 285.903 107.08 286.632 107.08C286.978 107.08 287.347 107.048 287.739 106.984V109.186C287.156 109.359 286.55 109.445 285.921 109.445ZM293.338 109.527C292.454 109.527 291.675 109.359 291 109.021C290.326 108.684 289.811 108.206 289.455 107.586C289.1 106.966 288.922 106.255 288.922 105.453C288.922 104.268 289.296 103.352 290.043 102.705C290.8 102.049 291.866 101.616 293.242 101.406L296.483 100.914C296.811 100.887 297.066 100.837 297.248 100.764C297.44 100.682 297.581 100.563 297.672 100.408C297.772 100.253 297.822 100.062 297.822 99.834C297.822 99.36 297.699 98.9453 297.453 98.5898C297.216 98.2253 296.874 97.9473 296.428 97.7559C295.99 97.5553 295.466 97.4551 294.856 97.4551C294.291 97.4551 293.794 97.5417 293.365 97.7148C292.937 97.888 292.595 98.1387 292.34 98.4668C292.094 98.7858 291.948 99.1686 291.902 99.6152H289.277C289.36 98.7038 289.633 97.9154 290.098 97.25C290.572 96.5846 291.214 96.0742 292.026 95.7188C292.837 95.3542 293.789 95.1719 294.883 95.1719C296.031 95.1719 297.025 95.3633 297.863 95.7461C298.702 96.1289 299.345 96.6758 299.791 97.3867C300.238 98.0885 300.461 98.9134 300.461 99.8613V109.268H297.822V106.998H297.727C297.326 107.8 296.756 108.424 296.018 108.871C295.289 109.309 294.395 109.527 293.338 109.527ZM294.035 107.299C294.837 107.299 295.521 107.107 296.086 106.725C296.66 106.342 297.093 105.831 297.385 105.193C297.677 104.546 297.822 103.854 297.822 103.115V102.473C297.667 102.582 297.494 102.669 297.303 102.732C297.121 102.787 296.865 102.842 296.537 102.896L293.57 103.348C292.987 103.439 292.513 103.644 292.149 103.963C291.793 104.282 291.615 104.729 291.615 105.303C291.615 105.713 291.711 106.068 291.902 106.369C292.094 106.67 292.376 106.902 292.75 107.066C293.124 107.221 293.552 107.299 294.035 107.299ZM305.636 109.268H302.929V89.5527H305.636V109.268ZM311.071 109.268H308.364V89.5527H311.071V109.268ZM319.842 109.568C318.465 109.568 317.271 109.263 316.26 108.652C315.248 108.042 314.473 107.189 313.936 106.096C313.398 105.002 313.129 103.758 313.129 102.363C313.129 100.905 313.411 99.6335 313.977 98.5488C314.542 97.4642 315.33 96.6302 316.342 96.0469C317.354 95.4635 318.511 95.1719 319.814 95.1719C321.09 95.1719 322.202 95.459 323.15 96.0332C324.098 96.6074 324.827 97.4095 325.338 98.4395C325.848 99.4603 326.104 100.636 326.104 101.967C326.104 102.14 326.099 102.331 326.09 102.541C326.081 102.742 326.067 102.951 326.049 103.17H315.754C315.827 104.045 316.041 104.797 316.396 105.426C316.761 106.046 317.24 106.51 317.832 106.82C318.434 107.121 319.126 107.271 319.91 107.271C320.767 107.271 321.496 107.066 322.098 106.656C322.708 106.237 323.128 105.663 323.355 104.934H325.994C325.812 105.863 325.438 106.679 324.873 107.381C324.317 108.074 323.602 108.611 322.727 108.994C321.861 109.377 320.899 109.568 319.842 109.568ZM323.424 101.051C323.387 100.294 323.219 99.6289 322.918 99.0547C322.617 98.4805 322.193 98.0384 321.646 97.7285C321.109 97.4186 320.484 97.2637 319.773 97.2637C319.099 97.2637 318.479 97.4004 317.914 97.6738C317.349 97.9382 316.88 98.3529 316.506 98.918C316.141 99.4831 315.9 100.194 315.781 101.051H323.424ZM328.175 109.268V95.4727H330.882V98.1523H330.978C331.324 97.2318 331.839 96.5436 332.523 96.0879C333.206 95.6322 334.036 95.4043 335.011 95.4043C335.357 95.4043 335.59 95.4134 335.708 95.4316V98.0156C335.608 97.9974 335.494 97.9837 335.366 97.9746C335.248 97.9655 335.129 97.9609 335.011 97.9609C334.182 97.9609 333.457 98.1341 332.837 98.4805C332.217 98.8177 331.734 99.3008 331.388 99.9297C331.051 100.549 330.882 101.274 330.882 102.104V109.268H328.175Z" fill="#ACACB0"/>
<defs>
<clipPath id="clip0_29_2646">
<rect width="28.7632" height="28.7632" fill="white" transform="translate(68.5 68.002)"/>
</clipPath>
</defs>
</svg>
