<svg width="406" height="165" viewBox="0 0 406 165" fill="none" xmlns="http://www.w3.org/2000/svg">
<rect width="54.7632" height="53.7676" transform="translate(55.5 55.5)" fill="white"/>
<g clip-path="url(#clip0_29_2665)">
<rect width="28.7632" height="28.7632" transform="translate(68.5 68.002)" fill="white"/>
<path d="M82.882 74.4251L79.919 70.8017C79.919 70.8017 74.8294 70.9072 69.7646 73.2649C71.0623 75.2218 73.6367 76.1845 73.6367 76.1845C73.8115 74.4605 75.0213 74.0387 78.8571 74.0387L82.881 96.7653L86.9049 74.0377C90.7417 74.0377 91.9506 74.4605 92.1253 76.1835C92.1253 76.1835 94.6997 75.2199 95.9974 73.264C90.9327 70.9072 85.8431 70.8008 85.8431 70.8008L82.8801 74.4241L82.882 74.4251Z" fill="black"/>
<path d="M82.8797 68.002C82.8081 68.002 82.7384 68.0029 82.6696 68.0048C78.4882 68.0451 73.6555 68.769 68.5 70.817C68.5 70.817 68.6642 71.329 69.3059 72.4872C74.1033 70.3884 78.7899 69.7211 82.8835 69.7518C82.8959 69.7518 82.9074 69.7518 82.9189 69.7518C87.0029 69.7249 91.6752 70.3942 96.4563 72.4872C97.098 71.3281 97.2623 70.817 97.2623 70.817C92.019 68.7335 87.108 68.0202 82.8797 68.002Z" fill="black"/>
</g>
<path d="M143.033 80.2676L137.66 60.5527H141.078L144.428 73.1309C144.537 73.5866 144.637 74.0378 144.729 74.4844C144.82 74.9219 144.893 75.3229 144.947 75.6875H145.029C145.093 75.3229 145.171 74.9173 145.262 74.4707C145.362 74.0241 145.471 73.5775 145.59 73.1309L149.076 60.5527H151.852L155.338 73.1309C155.456 73.5775 155.561 74.0241 155.652 74.4707C155.753 74.9173 155.839 75.3184 155.912 75.6738H155.994C156.049 75.3184 156.117 74.9173 156.199 74.4707C156.29 74.0241 156.391 73.5775 156.5 73.1309L159.85 60.5527H163.268L157.908 80.2676H154.49L151.059 67.7305C150.858 66.9557 150.68 66.1582 150.525 65.3379H150.443C150.279 66.1582 150.092 66.9603 149.883 67.7441L146.438 80.2676H143.033ZM167.26 80.5137C166.367 80.5137 165.583 80.3405 164.909 79.9941C164.234 79.6478 163.719 79.1647 163.364 78.5449C163.017 77.916 162.844 77.2005 162.844 76.3984C162.844 75.1771 163.232 74.2383 164.006 73.582C164.781 72.9167 165.87 72.4701 167.274 72.2422L170.419 71.75C170.71 71.7227 170.938 71.6771 171.102 71.6133C171.275 71.5404 171.407 71.4355 171.499 71.2988C171.59 71.153 171.635 70.9753 171.635 70.7656C171.635 70.3737 171.53 70.0228 171.321 69.7129C171.12 69.403 170.824 69.1615 170.432 68.9883C170.04 68.8151 169.571 68.7285 169.024 68.7285C168.523 68.7285 168.085 68.8014 167.711 68.9473C167.338 69.0931 167.042 69.3027 166.823 69.5762C166.604 69.8496 166.467 70.1777 166.413 70.5605H163.186C163.277 69.6309 163.569 68.8242 164.061 68.1406C164.553 67.457 165.223 66.9329 166.071 66.5684C166.928 66.2038 167.926 66.0215 169.065 66.0215C170.259 66.0215 171.294 66.2129 172.169 66.5957C173.044 66.9785 173.713 67.5299 174.178 68.25C174.652 68.9701 174.889 69.8223 174.889 70.8066V80.2676H171.635V78.1484H171.526C171.116 78.9049 170.555 79.4883 169.844 79.8984C169.133 80.3086 168.272 80.5137 167.26 80.5137ZM168.231 77.875C168.942 77.875 169.553 77.7109 170.063 77.3828C170.583 77.0456 170.975 76.5944 171.239 76.0293C171.503 75.4642 171.635 74.8535 171.635 74.1973V73.6504C171.499 73.7415 171.339 73.8145 171.157 73.8691C170.975 73.9238 170.742 73.9785 170.46 74.0332L167.766 74.457C167.283 74.5299 166.891 74.7077 166.59 74.9902C166.29 75.2637 166.139 75.6465 166.139 76.1387C166.139 76.4941 166.221 76.804 166.385 77.0684C166.549 77.3236 166.791 77.5241 167.11 77.6699C167.438 77.8066 167.812 77.875 168.231 77.875ZM180.529 80.2676H177.18V60.5527H180.529V80.2676ZM186.401 80.2676H183.052V60.5527H186.401V80.2676ZM204.148 80.5957C202.207 80.5957 200.507 80.1628 199.049 79.2969C197.59 78.4219 196.465 77.2142 195.672 75.6738C194.879 74.1335 194.482 72.3789 194.482 70.4102C194.482 68.4414 194.874 66.6868 195.658 65.1465C196.451 63.6061 197.572 62.403 199.021 61.5371C200.47 60.6621 202.157 60.2246 204.08 60.2246C205.638 60.2246 207.037 60.5208 208.277 61.1133C209.526 61.7057 210.542 62.5488 211.326 63.6426C212.11 64.7272 212.62 65.9941 212.857 67.4434H209.316C209.134 66.5866 208.806 65.8483 208.332 65.2285C207.858 64.5996 207.261 64.1211 206.541 63.793C205.83 63.4557 205.028 63.2871 204.134 63.2871C202.931 63.2871 201.874 63.597 200.963 64.2168C200.051 64.8275 199.349 65.6751 198.857 66.7598C198.365 67.8444 198.119 69.0658 198.119 70.4238C198.119 71.8548 198.36 73.1081 198.843 74.1836C199.336 75.25 200.033 76.0749 200.935 76.6582C201.847 77.2415 202.909 77.5332 204.121 77.5332C205.05 77.5332 205.88 77.3509 206.609 76.9863C207.347 76.6217 207.949 76.1204 208.414 75.4824C208.888 74.8353 209.198 74.097 209.343 73.2676H212.884C212.72 74.6895 212.256 75.9564 211.49 77.0684C210.724 78.1712 209.713 79.0371 208.455 79.666C207.197 80.2858 205.761 80.5957 204.148 80.5957ZM221.081 80.582C219.759 80.582 218.556 80.2812 217.472 79.6797C216.396 79.069 215.548 78.2122 214.929 77.1094C214.309 75.9974 213.999 74.7305 213.999 73.3086C213.999 71.8867 214.304 70.6243 214.915 69.5215C215.526 68.4186 216.373 67.5573 217.458 66.9375C218.543 66.3177 219.755 66.0078 221.095 66.0078C222.453 66.0078 223.67 66.3177 224.745 66.9375C225.821 67.5482 226.659 68.4049 227.261 69.5078C227.871 70.6107 228.177 71.8776 228.177 73.3086C228.177 74.7396 227.867 76.0065 227.247 77.1094C226.636 78.2122 225.789 79.069 224.704 79.6797C223.629 80.2812 222.421 80.582 221.081 80.582ZM221.081 77.7793C221.774 77.7793 222.398 77.6016 222.954 77.2461C223.519 76.8815 223.966 76.362 224.294 75.6875C224.622 75.013 224.786 74.2201 224.786 73.3086C224.786 72.3971 224.622 71.6042 224.294 70.9297C223.975 70.2552 223.533 69.7357 222.968 69.3711C222.412 69.0065 221.783 68.8242 221.081 68.8242C220.388 68.8242 219.759 69.0065 219.194 69.3711C218.638 69.7357 218.196 70.2552 217.868 70.9297C217.549 71.6042 217.39 72.3971 217.39 73.3086C217.39 74.2201 217.554 75.013 217.882 75.6875C218.21 76.3529 218.652 76.8678 219.208 77.2324C219.764 77.597 220.388 77.7793 221.081 77.7793ZM229.89 80.2676V66.3223H233.239V68.4961H233.349C233.731 67.7122 234.278 67.1016 234.989 66.6641C235.7 66.2266 236.548 66.0078 237.532 66.0078C238.58 66.0078 239.469 66.2357 240.198 66.6914C240.936 67.138 241.488 67.7715 241.852 68.5918C242.226 69.4121 242.413 70.3919 242.413 71.5312V80.2676H239.063V72.0234C239.063 71.0391 238.822 70.2826 238.339 69.7539C237.865 69.2161 237.204 68.9473 236.356 68.9473C235.718 68.9473 235.167 69.0931 234.702 69.3848C234.237 69.6673 233.877 70.0592 233.622 70.5605C233.367 71.0618 233.239 71.6224 233.239 72.2422V80.2676H229.89ZM244.591 80.2676V66.3223H247.94V68.4961H248.05C248.432 67.7122 248.979 67.1016 249.69 66.6641C250.401 66.2266 251.249 66.0078 252.233 66.0078C253.281 66.0078 254.17 66.2357 254.899 66.6914C255.637 67.138 256.189 67.7715 256.554 68.5918C256.927 69.4121 257.114 70.3919 257.114 71.5312V80.2676H253.764V72.0234C253.764 71.0391 253.523 70.2826 253.04 69.7539C252.566 69.2161 251.905 68.9473 251.057 68.9473C250.419 68.9473 249.868 69.0931 249.403 69.3848C248.938 69.6673 248.578 70.0592 248.323 70.5605C248.068 71.0618 247.94 71.6224 247.94 72.2422V80.2676H244.591ZM265.693 80.5684C264.299 80.5684 263.082 80.2676 262.043 79.666C261.004 79.0553 260.202 78.1986 259.637 77.0957C259.072 75.9928 258.789 74.7305 258.789 73.3086C258.789 71.8503 259.076 70.5697 259.65 69.4668C260.234 68.3639 261.045 67.5163 262.084 66.9238C263.123 66.3223 264.322 66.0215 265.68 66.0215C267.001 66.0215 268.154 66.3132 269.139 66.8965C270.123 67.4707 270.88 68.2819 271.408 69.3301C271.946 70.3691 272.215 71.5723 272.215 72.9395C272.215 73.1309 272.206 73.3451 272.188 73.582C272.178 73.8099 272.165 74.0378 272.147 74.2656H262.043C262.143 75.0495 262.357 75.7103 262.686 76.248C263.014 76.7858 263.438 77.1823 263.957 77.4375C264.486 77.6927 265.096 77.8203 265.789 77.8203C266.546 77.8203 267.188 77.6471 267.717 77.3008C268.255 76.9453 268.624 76.4668 268.824 75.8652H272.078C271.914 76.804 271.54 77.6289 270.957 78.3398C270.383 79.0417 269.64 79.5885 268.729 79.9805C267.817 80.3724 266.805 80.5684 265.693 80.5684ZM268.906 71.8457C268.861 71.1712 268.701 70.5833 268.428 70.082C268.163 69.5716 267.79 69.1888 267.307 68.9336C266.824 68.6693 266.268 68.5371 265.639 68.5371C265.055 68.5371 264.513 68.651 264.012 68.8789C263.52 69.0977 263.105 69.4531 262.768 69.9453C262.43 70.4375 262.203 71.071 262.084 71.8457H268.906ZM280.671 80.582C279.413 80.582 278.247 80.3177 277.171 79.7891C276.105 79.2513 275.248 78.4447 274.601 77.3691C273.954 76.2845 273.63 74.9583 273.63 73.3906C273.63 71.8503 273.936 70.5286 274.546 69.4258C275.166 68.3229 276.005 67.4798 277.062 66.8965C278.128 66.304 279.327 66.0078 280.658 66.0078C281.906 66.0078 282.995 66.2585 283.925 66.7598C284.864 67.2611 285.602 67.9401 286.14 68.7969C286.687 69.6536 287.02 70.6107 287.138 71.668H283.898C283.816 71.1211 283.643 70.6289 283.378 70.1914C283.114 69.7539 282.754 69.4076 282.298 69.1523C281.852 68.888 281.314 68.7559 280.685 68.7559C279.938 68.7559 279.286 68.9427 278.73 69.3164C278.174 69.6901 277.745 70.2233 277.445 70.916C277.144 71.6087 276.994 72.4108 276.994 73.3223C276.994 74.2702 277.153 75.0859 277.472 75.7695C277.791 76.444 278.229 76.959 278.785 77.3145C279.341 77.6608 279.965 77.834 280.658 77.834C281.268 77.834 281.801 77.7109 282.257 77.4648C282.722 77.2096 283.087 76.8724 283.351 76.4531C283.624 76.0247 283.811 75.5599 283.911 75.0586H287.138C287.02 76.0703 286.691 76.9954 286.154 77.834C285.625 78.6634 284.891 79.3288 283.952 79.8301C283.014 80.3314 281.92 80.582 280.671 80.582ZM294.415 80.4727C293.322 80.4727 292.451 80.2949 291.804 79.9395C291.166 79.5749 290.71 79.0872 290.437 78.4766C290.172 77.8568 290.04 77.123 290.04 76.2754V69.084H287.702V66.3359H290.04V62.5488H293.404V66.3359H296.493V69.084H293.404V76.0977C293.404 76.5807 293.549 76.959 293.841 77.2324C294.142 77.5059 294.625 77.6426 295.29 77.6426C295.664 77.6426 296.051 77.6061 296.452 77.5332V80.1582C295.787 80.3678 295.108 80.4727 294.415 80.4727ZM304.54 80.582C303.218 80.582 302.015 80.2812 300.93 79.6797C299.855 79.069 299.007 78.2122 298.387 77.1094C297.767 75.9974 297.458 74.7305 297.458 73.3086C297.458 71.8867 297.763 70.6243 298.374 69.5215C298.984 68.4186 299.832 67.5573 300.917 66.9375C302.001 66.3177 303.213 66.0078 304.553 66.0078C305.911 66.0078 307.128 66.3177 308.204 66.9375C309.279 67.5482 310.118 68.4049 310.719 69.5078C311.33 70.6107 311.635 71.8776 311.635 73.3086C311.635 74.7396 311.325 76.0065 310.706 77.1094C310.095 78.2122 309.247 79.069 308.163 79.6797C307.087 80.2812 305.879 80.582 304.54 80.582ZM304.54 77.7793C305.232 77.7793 305.857 77.6016 306.413 77.2461C306.978 76.8815 307.424 76.362 307.753 75.6875C308.081 75.013 308.245 74.2201 308.245 73.3086C308.245 72.3971 308.081 71.6042 307.753 70.9297C307.433 70.2552 306.991 69.7357 306.426 69.3711C305.87 69.0065 305.241 68.8242 304.54 68.8242C303.847 68.8242 303.218 69.0065 302.653 69.3711C302.097 69.7357 301.655 70.2552 301.327 70.9297C301.008 71.6042 300.848 72.3971 300.848 73.3086C300.848 74.2201 301.012 75.013 301.34 75.6875C301.669 76.3529 302.111 76.8678 302.667 77.2324C303.223 77.597 303.847 77.7793 304.54 77.7793ZM313.348 80.2676V66.3223H316.698V69.1113H316.793C317.131 68.1452 317.632 67.4251 318.297 66.9512C318.972 66.4772 319.792 66.2402 320.758 66.2402C321.141 66.2402 321.41 66.2585 321.565 66.2949V69.4395C321.456 69.4212 321.328 69.4076 321.182 69.3984C321.036 69.3802 320.895 69.3711 320.758 69.3711C319.956 69.3711 319.25 69.5352 318.639 69.8633C318.028 70.1914 317.55 70.6608 317.204 71.2715C316.866 71.873 316.698 72.5794 316.698 73.3906V80.2676H313.348Z" fill="white"/>
<path d="M147.723 109.582C145.827 109.582 144.159 109.154 142.719 108.297C141.288 107.431 140.18 106.228 139.396 104.688C138.622 103.147 138.234 101.393 138.234 99.4238C138.234 97.446 138.622 95.6868 139.396 94.1465C140.18 92.597 141.283 91.3893 142.705 90.5234C144.136 89.6576 145.795 89.2246 147.682 89.2246C149.186 89.2246 150.539 89.5117 151.742 90.0859C152.954 90.6602 153.948 91.4759 154.723 92.5332C155.497 93.5905 155.999 94.821 156.227 96.2246H153.41C153.21 95.2858 152.845 94.4792 152.316 93.8047C151.797 93.1211 151.145 92.597 150.361 92.2324C149.577 91.8678 148.698 91.6855 147.723 91.6855C146.419 91.6855 145.266 92.0182 144.264 92.6836C143.27 93.3398 142.5 94.2559 141.953 95.4316C141.406 96.6074 141.133 97.9427 141.133 99.4375C141.133 100.978 141.402 102.331 141.939 103.498C142.486 104.656 143.257 105.549 144.25 106.178C145.243 106.807 146.392 107.121 147.695 107.121C148.716 107.121 149.628 106.925 150.43 106.533C151.241 106.132 151.902 105.581 152.412 104.879C152.932 104.177 153.269 103.384 153.424 102.5H156.268C156.076 103.876 155.607 105.102 154.859 106.178C154.112 107.244 153.128 108.078 151.906 108.68C150.685 109.281 149.29 109.582 147.723 109.582ZM164.3 109.568C162.924 109.568 161.73 109.263 160.718 108.652C159.706 108.042 158.932 107.189 158.394 106.096C157.856 105.002 157.587 103.758 157.587 102.363C157.587 100.905 157.87 99.6335 158.435 98.5488C159 97.4642 159.788 96.6302 160.8 96.0469C161.812 95.4635 162.969 95.1719 164.273 95.1719C165.549 95.1719 166.661 95.459 167.609 96.0332C168.557 96.6074 169.286 97.4095 169.796 98.4395C170.307 99.4603 170.562 100.636 170.562 101.967C170.562 102.14 170.557 102.331 170.548 102.541C170.539 102.742 170.525 102.951 170.507 103.17H160.212C160.285 104.045 160.499 104.797 160.855 105.426C161.219 106.046 161.698 106.51 162.29 106.82C162.892 107.121 163.585 107.271 164.368 107.271C165.225 107.271 165.954 107.066 166.556 106.656C167.167 106.237 167.586 105.663 167.814 104.934H170.452C170.27 105.863 169.896 106.679 169.331 107.381C168.775 108.074 168.06 108.611 167.185 108.994C166.319 109.377 165.357 109.568 164.3 109.568ZM167.882 101.051C167.846 100.294 167.677 99.6289 167.376 99.0547C167.075 98.4805 166.652 98.0384 166.105 97.7285C165.567 97.4186 164.943 97.2637 164.232 97.2637C163.557 97.2637 162.937 97.4004 162.372 97.6738C161.807 97.9382 161.338 98.3529 160.964 98.918C160.6 99.4831 160.358 100.194 160.24 101.051H167.882ZM172.633 109.268V95.4727H175.34V98.1523H175.436C175.782 97.2318 176.297 96.5436 176.981 96.0879C177.665 95.6322 178.494 95.4043 179.469 95.4043C179.816 95.4043 180.048 95.4134 180.167 95.4316V98.0156C180.066 97.9974 179.952 97.9837 179.825 97.9746C179.706 97.9655 179.588 97.9609 179.469 97.9609C178.64 97.9609 177.915 98.1341 177.295 98.4805C176.676 98.8177 176.193 99.3008 175.846 99.9297C175.509 100.549 175.34 101.274 175.34 102.104V109.268H172.633ZM187.659 109.445C186.665 109.445 185.872 109.281 185.28 108.953C184.687 108.616 184.259 108.16 183.995 107.586C183.739 107.012 183.612 106.328 183.612 105.535V97.7969H181.219V95.4863H183.612V91.6992H186.333V95.4863H189.504V97.7969H186.333V105.398C186.333 105.909 186.488 106.319 186.797 106.629C187.116 106.93 187.641 107.08 188.37 107.08C188.716 107.08 189.085 107.048 189.477 106.984V109.186C188.894 109.359 188.288 109.445 187.659 109.445ZM192.574 93.3262C192.246 93.3262 191.95 93.2533 191.685 93.1074C191.43 92.9525 191.23 92.7474 191.084 92.4922C190.938 92.2279 190.865 91.9362 190.865 91.6172C190.865 91.2891 190.938 90.9974 191.084 90.7422C191.23 90.4779 191.43 90.2728 191.685 90.127C191.95 89.972 192.246 89.8945 192.574 89.8945C192.902 89.8945 193.194 89.972 193.449 90.127C193.704 90.2728 193.905 90.4779 194.051 90.7422C194.206 90.9974 194.283 91.2891 194.283 91.6172C194.283 91.9362 194.206 92.2279 194.051 92.4922C193.905 92.7474 193.704 92.9525 193.449 93.1074C193.194 93.2533 192.902 93.3262 192.574 93.3262ZM191.221 109.268V95.4727H193.928V109.268H191.221ZM202.343 89.0469C202.58 89.0469 202.831 89.0605 203.095 89.0879C203.359 89.1152 203.614 89.1562 203.86 89.2109H203.888V91.3984C203.587 91.3255 203.25 91.2891 202.876 91.2891C202.11 91.2891 201.564 91.4759 201.235 91.8496C200.916 92.2233 200.757 92.7109 200.757 93.3125V95.4863H203.888V97.7969H200.757V109.268H198.036V97.7969H195.452V95.4863H198.036V93.2988C198.036 92.4694 198.191 91.7402 198.501 91.1113C198.811 90.4733 199.285 89.972 199.923 89.6074C200.561 89.2337 201.368 89.0469 202.343 89.0469ZM206.78 93.3262C206.452 93.3262 206.155 93.2533 205.891 93.1074C205.636 92.9525 205.435 92.7474 205.289 92.4922C205.144 92.2279 205.071 91.9362 205.071 91.6172C205.071 91.2891 205.144 90.9974 205.289 90.7422C205.435 90.4779 205.636 90.2728 205.891 90.127C206.155 89.972 206.452 89.8945 206.78 89.8945C207.108 89.8945 207.399 89.972 207.655 90.127C207.91 90.2728 208.11 90.4779 208.256 90.7422C208.411 90.9974 208.489 91.2891 208.489 91.6172C208.489 91.9362 208.411 92.2279 208.256 92.4922C208.11 92.7474 207.91 92.9525 207.655 93.1074C207.399 93.2533 207.108 93.3262 206.78 93.3262ZM205.426 109.268V95.4727H208.133V109.268H205.426ZM216.904 109.568C215.528 109.568 214.334 109.263 213.322 108.652C212.31 108.042 211.535 107.189 210.998 106.096C210.46 105.002 210.191 103.758 210.191 102.363C210.191 100.905 210.474 99.6335 211.039 98.5488C211.604 97.4642 212.392 96.6302 213.404 96.0469C214.416 95.4635 215.573 95.1719 216.877 95.1719C218.153 95.1719 219.265 95.459 220.213 96.0332C221.16 96.6074 221.89 97.4095 222.4 98.4395C222.91 99.4603 223.166 100.636 223.166 101.967C223.166 102.14 223.161 102.331 223.152 102.541C223.143 102.742 223.129 102.951 223.111 103.17H212.816C212.889 104.045 213.103 104.797 213.459 105.426C213.823 106.046 214.302 106.51 214.894 106.82C215.496 107.121 216.188 107.271 216.972 107.271C217.829 107.271 218.558 107.066 219.16 106.656C219.771 106.237 220.19 105.663 220.418 104.934H223.056C222.874 105.863 222.5 106.679 221.935 107.381C221.379 108.074 220.664 108.611 219.789 108.994C218.923 109.377 217.961 109.568 216.904 109.568ZM220.486 101.051C220.45 100.294 220.281 99.6289 219.98 99.0547C219.679 98.4805 219.256 98.0384 218.709 97.7285C218.171 97.4186 217.547 97.2637 216.836 97.2637C216.161 97.2637 215.541 97.4004 214.976 97.6738C214.411 97.9382 213.942 98.3529 213.568 98.918C213.203 99.4831 212.962 100.194 212.843 101.051H220.486ZM230.624 109.568C229.512 109.568 228.505 109.286 227.603 108.721C226.709 108.146 226.003 107.322 225.483 106.246C224.973 105.161 224.718 103.876 224.718 102.391C224.718 100.951 224.968 99.6836 225.47 98.5898C225.98 97.4961 226.677 96.653 227.561 96.0605C228.455 95.4681 229.48 95.1719 230.638 95.1719C231.33 95.1719 231.978 95.2767 232.579 95.4863C233.181 95.6868 233.714 95.9785 234.179 96.3613C234.653 96.7441 235.035 97.1908 235.327 97.7012H235.409V89.6348H238.13V109.268H235.409V107.039H235.327C235.008 107.586 234.607 108.046 234.124 108.42C233.65 108.794 233.112 109.076 232.511 109.268C231.909 109.468 231.28 109.568 230.624 109.568ZM231.485 107.189C232.278 107.189 232.971 106.993 233.563 106.602C234.165 106.21 234.63 105.654 234.958 104.934C235.295 104.204 235.464 103.357 235.464 102.391C235.464 101.443 235.3 100.604 234.972 99.875C234.644 99.1367 234.179 98.5671 233.577 98.166C232.976 97.765 232.274 97.5645 231.472 97.5645C230.688 97.5645 229.991 97.7604 229.38 98.1523C228.778 98.5443 228.309 99.1003 227.972 99.8203C227.634 100.54 227.466 101.393 227.466 102.377C227.466 103.361 227.639 104.218 227.985 104.947C228.332 105.667 228.806 106.223 229.407 106.615C230.018 106.998 230.711 107.189 231.485 107.189ZM247.537 109.268V89.5527H250.38V109.268H247.537ZM253.491 109.268V95.4727H256.198V97.7148H256.307C256.681 96.9128 257.233 96.2884 257.962 95.8418C258.691 95.3861 259.561 95.1582 260.573 95.1582C261.621 95.1582 262.514 95.3815 263.253 95.8281C264 96.2747 264.561 96.9082 264.934 97.7285C265.308 98.5488 265.495 99.5241 265.495 100.654V109.268H262.774V101.023C262.774 99.9115 262.505 99.0547 261.968 98.4531C261.439 97.8516 260.696 97.5508 259.739 97.5508C259.01 97.5508 258.381 97.7194 257.852 98.0566C257.324 98.3848 256.914 98.8359 256.622 99.4102C256.339 99.9753 256.198 100.604 256.198 101.297V109.268H253.491ZM273.049 109.582C271.244 109.582 269.831 109.176 268.811 108.365C267.799 107.545 267.247 106.378 267.156 104.865H269.863C269.909 105.658 270.201 106.278 270.738 106.725C271.276 107.171 272.042 107.395 273.035 107.395C273.947 107.395 274.649 107.226 275.141 106.889C275.633 106.551 275.874 106.118 275.865 105.59C275.856 105.134 275.751 104.774 275.551 104.51C275.35 104.245 275.018 104.031 274.553 103.867C274.088 103.703 273.409 103.539 272.516 103.375C271.313 103.156 270.365 102.892 269.672 102.582C268.979 102.272 268.469 101.862 268.141 101.352C267.822 100.841 267.658 100.199 267.649 99.4238C267.639 98.6035 267.835 97.8743 268.236 97.2363C268.647 96.5983 269.257 96.097 270.068 95.7324C270.889 95.3587 271.85 95.1719 272.953 95.1719C274.074 95.1719 275.05 95.3496 275.879 95.7051C276.708 96.0514 277.346 96.5573 277.793 97.2227C278.249 97.888 278.486 98.6901 278.504 99.6289H275.865C275.811 98.9089 275.537 98.3529 275.045 97.9609C274.562 97.5599 273.874 97.3594 272.981 97.3594C272.434 97.3594 271.96 97.4323 271.559 97.5781C271.167 97.724 270.866 97.929 270.656 98.1934C270.447 98.4577 270.346 98.7676 270.356 99.123C270.356 99.5241 270.451 99.8385 270.643 100.066C270.834 100.285 271.158 100.472 271.613 100.627C272.069 100.782 272.725 100.937 273.582 101.092C274.822 101.32 275.797 101.589 276.508 101.898C277.228 102.208 277.761 102.623 278.107 103.143C278.454 103.653 278.632 104.309 278.641 105.111C278.65 106.005 278.44 106.784 278.012 107.449C277.583 108.115 276.95 108.639 276.111 109.021C275.282 109.395 274.261 109.582 273.049 109.582ZM285.921 109.445C284.928 109.445 284.135 109.281 283.542 108.953C282.95 108.616 282.522 108.16 282.257 107.586C282.002 107.012 281.874 106.328 281.874 105.535V97.7969H279.482V95.4863H281.874V91.6992H284.595V95.4863H287.767V97.7969H284.595V105.398C284.595 105.909 284.75 106.319 285.06 106.629C285.379 106.93 285.903 107.08 286.632 107.08C286.979 107.08 287.348 107.048 287.74 106.984V109.186C287.156 109.359 286.55 109.445 285.921 109.445ZM293.339 109.527C292.454 109.527 291.675 109.359 291.001 109.021C290.326 108.684 289.811 108.206 289.456 107.586C289.1 106.966 288.923 106.255 288.923 105.453C288.923 104.268 289.296 103.352 290.044 102.705C290.8 102.049 291.867 101.616 293.243 101.406L296.483 100.914C296.811 100.887 297.066 100.837 297.249 100.764C297.44 100.682 297.581 100.563 297.673 100.408C297.773 100.253 297.823 100.062 297.823 99.834C297.823 99.36 297.7 98.9453 297.454 98.5898C297.217 98.2253 296.875 97.9473 296.428 97.7559C295.991 97.5553 295.467 97.4551 294.856 97.4551C294.291 97.4551 293.794 97.5417 293.366 97.7148C292.937 97.888 292.596 98.1387 292.34 98.4668C292.094 98.7858 291.949 99.1686 291.903 99.6152H289.278C289.36 98.7038 289.633 97.9154 290.098 97.25C290.572 96.5846 291.215 96.0742 292.026 95.7188C292.837 95.3542 293.79 95.1719 294.883 95.1719C296.032 95.1719 297.025 95.3633 297.864 95.7461C298.702 96.1289 299.345 96.6758 299.792 97.3867C300.238 98.0885 300.462 98.9134 300.462 99.8613V109.268H297.823V106.998H297.727C297.326 107.8 296.756 108.424 296.018 108.871C295.289 109.309 294.396 109.527 293.339 109.527ZM294.036 107.299C294.838 107.299 295.521 107.107 296.087 106.725C296.661 106.342 297.094 105.831 297.385 105.193C297.677 104.546 297.823 103.854 297.823 103.115V102.473C297.668 102.582 297.495 102.669 297.303 102.732C297.121 102.787 296.866 102.842 296.538 102.896L293.571 103.348C292.988 103.439 292.514 103.644 292.149 103.963C291.794 104.282 291.616 104.729 291.616 105.303C291.616 105.713 291.712 106.068 291.903 106.369C292.094 106.67 292.377 106.902 292.751 107.066C293.124 107.221 293.553 107.299 294.036 107.299ZM305.637 109.268H302.93V89.5527H305.637V109.268ZM311.071 109.268H308.364V89.5527H311.071V109.268ZM319.842 109.568C318.466 109.568 317.272 109.263 316.26 108.652C315.249 108.042 314.474 107.189 313.936 106.096C313.398 105.002 313.129 103.758 313.129 102.363C313.129 100.905 313.412 99.6335 313.977 98.5488C314.542 97.4642 315.331 96.6302 316.342 96.0469C317.354 95.4635 318.512 95.1719 319.815 95.1719C321.091 95.1719 322.203 95.459 323.151 96.0332C324.099 96.6074 324.828 97.4095 325.338 98.4395C325.849 99.4603 326.104 100.636 326.104 101.967C326.104 102.14 326.099 102.331 326.09 102.541C326.081 102.742 326.068 102.951 326.049 103.17H315.754C315.827 104.045 316.041 104.797 316.397 105.426C316.762 106.046 317.24 106.51 317.833 106.82C318.434 107.121 319.127 107.271 319.911 107.271C320.767 107.271 321.497 107.066 322.098 106.656C322.709 106.237 323.128 105.663 323.356 104.934H325.995C325.812 105.863 325.439 106.679 324.874 107.381C324.318 108.074 323.602 108.611 322.727 108.994C321.861 109.377 320.9 109.568 319.842 109.568ZM323.424 101.051C323.388 100.294 323.219 99.6289 322.918 99.0547C322.618 98.4805 322.194 98.0384 321.647 97.7285C321.109 97.4186 320.485 97.2637 319.774 97.2637C319.099 97.2637 318.48 97.4004 317.915 97.6738C317.349 97.9382 316.88 98.3529 316.506 98.918C316.142 99.4831 315.9 100.194 315.782 101.051H323.424ZM328.176 109.268V95.4727H330.883V98.1523H330.978C331.325 97.2318 331.84 96.5436 332.523 96.0879C333.207 95.6322 334.036 95.4043 335.011 95.4043C335.358 95.4043 335.59 95.4134 335.709 95.4316V98.0156C335.608 97.9974 335.495 97.9837 335.367 97.9746C335.248 97.9655 335.13 97.9609 335.011 97.9609C334.182 97.9609 333.457 98.1341 332.838 98.4805C332.218 98.8177 331.735 99.3008 331.388 99.9297C331.051 100.549 330.883 101.274 330.883 102.104V109.268H328.176Z" fill="#66666A"/>
<defs>
<clipPath id="clip0_29_2665">
<rect width="28.7632" height="28.7632" fill="white" transform="translate(68.5 68.002)"/>
</clipPath>
</defs>
</svg>
