<?xml version="1.0" encoding="UTF-8"?>
<!DOCTYPE svg PUBLIC "-//W3C//DTD SVG 1.1//EN" "http://www.w3.org/Graphics/SVG/1.1/DTD/svg11.dtd">
<svg xmlns="http://www.w3.org/2000/svg" version="1.1" width="3078px" height="2266px" style="shape-rendering:geometricPrecision; text-rendering:geometricPrecision; image-rendering:optimizeQuality; fill-rule:evenodd; clip-rule:evenodd" xmlns:xlink="http://www.w3.org/1999/xlink">
<g><path style="opacity:0.993" fill="#030301" d="M 2379.5,101.5 C 2375.53,123.944 2372.2,146.611 2369.5,169.5C 2362.21,213.271 2355.54,257.271 2349.5,301.5C 2344.07,337.478 2338.74,373.478 2333.5,409.5C 2333.5,409.833 2333.5,410.167 2333.5,410.5C 2319.9,500.33 2306.57,590.33 2293.5,680.5C 2292.38,684.295 2291.72,688.295 2291.5,692.5C 2287.31,720.131 2283.31,747.798 2279.5,775.5C 2278.54,777.265 2278.21,779.265 2278.5,781.5C 2396.83,781.5 2515.17,781.5 2633.5,781.5C 2644.85,781.168 2656.19,781.501 2667.5,782.5C 2659.39,793.26 2651.73,804.26 2644.5,815.5C 2636.77,824.628 2629.77,834.294 2623.5,844.5C 2527.77,976.296 2432.77,1108.63 2338.5,1241.5C 2294.01,1302.47 2250.01,1363.81 2206.5,1425.5C 2150.43,1501.96 2095.1,1578.96 2040.5,1656.5C 2005.1,1704.3 1970.43,1752.63 1936.5,1801.5C 1912.02,1834.44 1888.02,1867.78 1864.5,1901.5C 1835.36,1941.49 1806.36,1981.65 1777.5,2022C 1778.45,2022.48 1779.45,2022.65 1780.5,2022.5C 1779.83,2023.83 1778.83,2024.83 1777.5,2025.5C 1777.63,2024.76 1777.46,2024.09 1777,2023.5C 1729.95,2088.22 1683.28,2153.22 1637,2218.5C 1634.15,2221.02 1631.48,2220.68 1629,2217.5C 1628.53,2218.58 1628.7,2219.58 1629.5,2220.5C 1627.37,2220.45 1626.03,2219.45 1625.5,2217.5C 1627.13,2216.37 1628.63,2215.04 1630,2213.5C 1673.68,2143.47 1717.84,2073.8 1762.5,2004.5C 1798.19,1947.82 1833.86,1891.15 1869.5,1834.5C 1922.58,1752.68 1974.91,1670.35 2026.5,1587.5C 2138.53,1412.12 2250.19,1236.46 2361.5,1060.5C 2374.27,1041.15 2386.93,1021.65 2399.5,1002C 2385.5,1001.5 2371.5,1001.33 2357.5,1001.5C 2226.83,1001.5 2096.17,1001.5 1965.5,1001.5C 1964.76,1001.63 1964.09,1001.46 1963.5,1001C 1968.17,990.667 1972.83,980.333 1977.5,970C 1976.55,969.517 1975.55,969.351 1974.5,969.5C 1976.17,966.071 1977.84,962.738 1979.5,959.5C 1979.54,962.181 1978.87,964.681 1977.5,967C 1977.67,967.5 1977.83,968 1978,968.5C 1990.79,939.918 2003.29,911.251 2015.5,882.5C 2051.29,803.911 2086.29,724.911 2120.5,645.5C 2147.07,587.148 2173.07,528.481 2198.5,469.5C 2241.93,373.577 2284.59,277.243 2326.5,180.5C 2339.24,154.962 2350.24,128.628 2359.5,101.5C 2369.56,77.0345 2379.39,52.3679 2389,27.5C 2386.33,52.1987 2383.16,76.8654 2379.5,101.5 Z"/></g>
<g><path style="opacity:0.171" fill="#3b3b32" d="M 2382.5,94.5 C 2381.37,97.3847 2380.37,99.718 2379.5,101.5C 2383.16,76.8654 2386.33,52.1987 2389,27.5C 2379.39,52.3679 2369.56,77.0345 2359.5,101.5C 2359.67,100.508 2359.34,99.8417 2358.5,99.5C 2364.77,80.3661 2371.94,61.6995 2380,43.5C 2381.43,35.6987 2383.93,28.3654 2387.5,21.5C 2388.83,21.5 2390.17,21.5 2391.5,21.5C 2391.62,23.1986 2391.95,24.8653 2392.5,26.5C 2389.9,49.3457 2386.57,72.0123 2382.5,94.5 Z"/></g>
<g><path style="opacity:1" fill="#f1fe1a" d="M 2269.5,787.5 C 2268.6,788.209 2268.26,789.209 2268.5,790.5C 2396,790.167 2523.33,790.5 2650.5,791.5C 2341.55,1222.29 2032.39,1652.95 1723,2083.5C 1722.33,2082.83 1722.33,2082.17 1723,2081.5C 1965.83,1699.33 2208.67,1317.17 2451.5,935C 2316.5,934.833 2181.5,934.333 2046.5,933.5C 2154.67,654.5 2262.83,375.5 2371,96.5C 2337.13,326.786 2303.29,557.119 2269.5,787.5 Z"/></g>
<g><path style="opacity:0.205" fill="#54552d" d="M 2382.5,94.5 C 2381.15,102.334 2380.32,110.334 2380,118.5C 2378.88,119.949 2378.22,121.616 2378,123.5C 2376.1,141.292 2373.6,158.959 2370.5,176.5C 2370.01,174.194 2369.67,171.861 2369.5,169.5C 2372.2,146.611 2375.53,123.944 2379.5,101.5C 2380.37,99.718 2381.37,97.3847 2382.5,94.5 Z"/></g>
<g><path style="opacity:0.098" fill="#3e3f21" d="M 2358.5,99.5 C 2359.34,99.8417 2359.67,100.508 2359.5,101.5C 2350.24,128.628 2339.24,154.962 2326.5,180.5C 2326.5,179.5 2326.5,178.5 2326.5,177.5C 2327.31,171.916 2329.48,166.916 2333,162.5C 2340.49,143.68 2348.16,125.013 2356,106.5C 2356.33,104.5 2356.67,102.5 2357,100.5C 2357.38,99.944 2357.88,99.6107 2358.5,99.5 Z"/></g>
<g><path style="opacity:0.188" fill="#75782f" d="M 2369.5,169.5 C 2369.67,171.861 2370.01,174.194 2370.5,176.5C 2364.42,215.321 2358.92,254.321 2354,293.5C 2353.62,294.056 2353.12,294.389 2352.5,294.5C 2351.65,296.888 2350.65,299.221 2349.5,301.5C 2355.54,257.271 2362.21,213.271 2369.5,169.5 Z"/></g>
<g><path style="opacity:0.161" fill="#b0b429" d="M 2345.5,345.5 C 2345.19,349.36 2344.52,353.026 2343.5,356.5C 2342.92,352.351 2343.59,348.684 2345.5,345.5 Z"/></g>
<g><path style="opacity:0.298" fill="#545722" d="M 2326.5,177.5 C 2326.5,178.5 2326.5,179.5 2326.5,180.5C 2284.59,277.243 2241.93,373.577 2198.5,469.5C 2197.2,470.987 2196.03,472.654 2195,474.5C 2194.31,475.738 2193.81,475.738 2193.5,474.5C 2225.7,401.769 2258.2,329.102 2291,256.5C 2301.73,229.704 2313.56,203.371 2326.5,177.5 Z"/></g>
<g><path style="opacity:0.302" fill="#82862b" d="M 2352.5,294.5 C 2353.01,300.072 2352.18,305.405 2350,310.5C 2348.78,322.265 2347.28,333.932 2345.5,345.5C 2343.59,348.684 2342.92,352.351 2343.5,356.5C 2342,369.202 2340.33,381.869 2338.5,394.5C 2337.27,395.152 2336.61,396.319 2336.5,398C 2335.97,400.817 2335.64,403.65 2335.5,406.5C 2335.5,407.167 2335.5,407.833 2335.5,408.5C 2334.83,408.833 2334.17,409.167 2333.5,409.5C 2338.74,373.478 2344.07,337.478 2349.5,301.5C 2350.65,299.221 2351.65,296.888 2352.5,294.5 Z"/></g>
<g><path style="opacity:0.067" fill="#abb31e" d="M 2338.5,394.5 C 2338.15,398.79 2337.15,402.79 2335.5,406.5C 2335.64,403.65 2335.97,400.817 2336.5,398C 2336.61,396.319 2337.27,395.152 2338.5,394.5 Z"/></g>
<g><path style="opacity:0.106" fill="#abb323" d="M 2335.5,408.5 C 2335.67,412.846 2335.5,417.179 2335,421.5C 2334.62,422.056 2334.12,422.389 2333.5,422.5C 2333.5,418.5 2333.5,414.5 2333.5,410.5C 2333.5,410.167 2333.5,409.833 2333.5,409.5C 2334.17,409.167 2334.83,408.833 2335.5,408.5 Z"/></g>
<g><path style="opacity:0.312" fill="#292929" d="M 737.5,481.5 C 786.834,481.333 836.168,481.5 885.5,482C 836.117,481.84 786.951,482.673 738,484.5C 737.667,483.833 737.333,483.167 737,482.5C 736.329,483.252 735.496,483.586 734.5,483.5C 734.973,482.094 735.973,481.427 737.5,481.5 Z"/></g>
<g><path style="opacity:0.027" fill="#000000" d="M 1874.5,481.5 C 1819.66,481.168 1765,481.501 1710.5,482.5C 1708.83,629.33 1707.83,776.33 1707.5,923.5C 1707.17,776.165 1707.5,628.832 1708.5,481.5C 1763.96,480.169 1819.29,480.169 1874.5,481.5 Z"/></g>
<g><path style="opacity:0.997" fill="#000000" d="M 240.5,989.5 C 239.402,988.603 239.402,987.77 240.5,987C 179.833,986.667 119.167,986.333 58.5,986C 56.1788,985.163 53.8454,984.83 51.5,985C 52.3805,985.708 53.0472,986.542 53.5,987.5C 50.9214,987.606 48.588,986.939 46.5,985.5C 47.6085,984.71 48.9419,984.21 50.5,984C 40.453,978.204 37.2864,969.704 41,958.5C 42.7786,954.388 45.6119,951.222 49.5,949C 56.1667,946.667 62.8333,944.333 69.5,942C 74.4784,937.284 76.9784,931.45 77,924.5C 77.6667,797.833 77.6667,671.167 77,544.5C 76.5758,531.241 69.7425,523.908 56.5,522.5C 55.4376,523.425 55.4376,524.425 56.5,525.5C 40.0627,521.541 33.5627,511.207 37,494.5C 40.8955,485.423 47.7289,481.09 57.5,481.5C 119.373,480.169 181.373,480.169 243.5,481.5C 244.833,650.167 244.833,818.833 243.5,987.5C 242.735,988.612 241.735,989.279 240.5,989.5 Z"/></g>
<g><path style="opacity:0.312" fill="#292929" d="M 57.5,481.5 C 118.501,481.333 179.501,481.5 240.5,482C 178.467,482.352 116.467,482.685 54.5,483C 55.7375,482.768 56.7375,482.268 57.5,481.5 Z"/></g>
<g><path style="opacity:0.996" fill="#000000" d="M 484.5,629.5 C 483.681,626.695 483.181,623.695 483,620.5C 474.485,665.681 448.652,696.181 405.5,712C 407.382,712.198 409.048,712.698 410.5,713.5C 397.746,717.86 384.746,721.693 371.5,725C 384.221,728.172 396.887,731.505 409.5,735C 416.259,738.713 423.259,741.88 430.5,744.5C 436.133,748.322 441.8,752.155 447.5,756C 449.041,757.371 450.375,758.871 451.5,760.5C 450.761,760.369 450.094,760.536 449.5,761C 477.417,785.689 491.084,816.855 490.5,854.5C 489.93,908.547 465.263,947.047 416.5,970C 400.242,977.307 383.242,981.974 365.5,984C 368.146,984.497 370.813,984.664 373.5,984.5C 371.502,985.148 369.502,985.981 367.5,987C 360.842,987.5 354.175,987.666 347.5,987.5C 351.312,986.676 355.312,986.176 359.5,986C 360.5,985.667 361.5,985.333 362.5,985C 331.874,986.314 301.207,986.814 270.5,986.5C 270.5,973.5 270.5,960.5 270.5,947.5C 288.063,948.382 302.23,942.049 313,928.5C 315.977,923.887 317.81,918.887 318.5,913.5C 317.728,914.694 316.728,915.694 315.5,916.5C 315.231,914.571 315.731,912.905 317,911.5C 317.667,868.833 317.667,826.167 317,783.5C 316.016,780.041 314.85,776.708 313.5,773.5C 313.435,773.062 313.601,772.728 314,772.5C 315.385,773.551 316.385,774.884 317,776.5C 313.259,764.737 305.759,755.904 294.5,750C 287.427,747.654 280.26,745.821 273,744.5C 272.5,731.504 272.333,718.504 272.5,705.5C 298.383,705.773 314.549,693.44 321,668.5C 321.667,635.833 321.667,603.167 321,570.5C 317.474,540.472 300.641,524.806 270.5,523.5C 270.5,509.833 270.5,496.167 270.5,482.5C 292.836,482.667 315.169,482.5 337.5,482C 314.836,481.5 292.169,481.333 269.5,481.5C 270.641,480.661 271.974,479.994 273.5,479.5C 301.804,480.198 330.137,481.031 358.5,482C 385.267,485.269 410.267,493.603 433.5,507C 476.487,536.877 493.487,577.71 484.5,629.5 Z"/></g>
<g><path style="opacity:0.996" fill="#000000" d="M 926.5,636.5 C 925.414,636.62 924.747,637.287 924.5,638.5C 932.003,669.843 939.503,701.176 947,732.5C 947.183,729.635 947.683,726.969 948.5,724.5C 950.993,738.172 953.993,751.839 957.5,765.5C 956.542,765.047 955.708,764.381 955,763.5C 960.506,789.865 966.506,816.198 973,842.5C 973.333,841.5 973.667,840.5 974,839.5C 974.417,840.756 975.25,841.423 976.5,841.5C 976.336,844.187 976.503,846.854 977,849.5C 979.365,860.918 982.199,872.251 985.5,883.5C 983.411,880.563 981.911,877.23 981,873.5C 984.621,895.649 990.288,917.315 998,938.5C 999.833,940.333 1001.67,942.167 1003.5,944C 1012.56,946.94 1020.39,951.774 1027,958.5C 1031.61,974.891 1025.45,984.058 1008.5,986C 941.833,986.667 875.167,986.667 808.5,986C 794.196,982.548 788.696,973.714 792,959.5C 792.792,957.413 793.959,955.579 795.5,954C 793.892,953.342 792.725,953.842 792,955.5C 791.601,955.272 791.435,954.938 791.5,954.5C 793.969,951.237 796.969,948.403 800.5,946C 804.746,944.544 808.746,942.544 812.5,940C 814.912,937.292 816.412,934.125 817,930.5C 817.405,924.807 817.072,919.141 816,913.5C 811.364,897.75 807.864,881.75 805.5,865.5C 806.75,865.577 807.583,866.244 808,867.5C 808.72,865.888 808.554,864.388 807.5,863C 773.162,862.833 738.828,862.333 704.5,861.5C 708.307,847.271 711.641,832.938 714.5,818.5C 742.175,818.833 769.841,818.5 797.5,817.5C 789.178,782.547 781.012,747.547 773,712.5C 772.913,715.707 772.746,718.707 772.5,721.5C 767.764,704.032 763.764,686.365 760.5,668.5C 761.75,668.577 762.583,669.244 763,670.5C 755.652,634.102 747.652,597.768 739,561.5C 739.024,567.613 740.024,573.613 742,579.5C 742.805,582.696 742.638,585.696 741.5,588.5C 737.003,570.455 733.169,552.121 730,533.5C 728.226,528.744 726.726,523.911 725.5,519C 729.187,507.312 732.187,495.478 734.5,483.5C 735.496,483.586 736.329,483.252 737,482.5C 737.333,483.167 737.667,483.833 738,484.5C 786.951,482.673 836.117,481.84 885.5,482C 836.168,481.5 786.834,481.333 737.5,481.5C 738.172,480.733 739.005,480.066 740,479.5C 789.804,480.169 839.637,480.836 889.5,481.5C 891.114,488.714 893.281,495.714 896,502.5C 896.333,505.5 896.667,508.5 897,511.5C 901.244,528.276 905.578,544.943 910,561.5C 910.214,568.509 911.714,575.176 914.5,581.5C 917.216,599.961 921.216,618.294 926.5,636.5 Z"/></g>
<g><path style="opacity:0.992" fill="#010101" d="M 1189.5,483.5 C 1188.6,482.402 1187.77,482.402 1187,483.5C 1186.67,498.167 1186.33,512.833 1186,527.5C 1174.5,534.333 1165.33,543.5 1158.5,555C 1159.86,554.857 1161.2,554.357 1162.5,553.5C 1154.93,566.583 1148.93,580.249 1144.5,594.5C 1144.66,592.473 1144.5,590.473 1144,588.5C 1139.85,603.605 1136.85,618.938 1135,634.5C 1131.81,653.341 1120.97,660.507 1102.5,656C 1095.32,652.817 1091.15,647.317 1090,639.5C 1089.67,587.5 1089.33,535.5 1089,483.5C 1088.5,536.832 1088.33,590.166 1088.5,643.5C 1087.17,616.842 1086.5,589.842 1086.5,562.5C 1086.83,535.5 1087.17,508.5 1087.5,481.5C 1088.75,480.96 1089.91,480.293 1091,479.5C 1122.76,480.329 1154.6,480.829 1186.5,481C 1188.12,481.236 1189.12,482.069 1189.5,483.5 Z"/></g>
<g><path style="opacity:0.997" fill="#000000" d="M 1380.5,481.5 C 1161.83,481.833 1161.83,482.167 1380.5,482.5C 1380.33,628.834 1380.5,775.167 1381,921.5C 1381.09,929.52 1384.26,936.02 1390.5,941C 1398.5,943.333 1406.5,945.667 1414.5,948C 1427.27,955.643 1429.77,965.81 1422,978.5C 1416.82,983.336 1410.66,985.836 1403.5,986C 1333.17,986.667 1262.83,986.667 1192.5,986C 1172.33,982.789 1166.49,971.956 1175,953.5C 1176.56,951.641 1178.39,950.141 1180.5,949C 1179.21,948.51 1177.87,948.343 1176.5,948.5C 1184.31,943.457 1192.97,940.624 1202.5,940C 1204,938.885 1205.67,938.052 1207.5,937.5C 1209.79,933.357 1211.62,929.023 1213,924.5C 1213.17,776.832 1213.67,629.166 1214.5,481.5C 1215.55,480.617 1216.71,479.95 1218,479.5C 1272.31,480.16 1326.47,480.827 1380.5,481.5 Z"/></g>
<g><path style="opacity:0.99" fill="#020202" d="M 1410.5,481.5 C 1443.37,480.171 1476.37,480.171 1509.5,481.5C 1510.67,536.164 1510.83,590.83 1510,645.5C 1506.55,650.948 1502.05,655.448 1496.5,659C 1486.02,661.012 1476.36,659.346 1467.5,654C 1461.81,644.764 1458.81,634.598 1458.5,623.5C 1458.25,620.786 1458.08,618.119 1458,615.5C 1459.32,619.737 1460.32,624.071 1461,628.5C 1459.44,598.16 1450.11,570.493 1433,545.5C 1426.66,537.822 1419.16,531.655 1410.5,527C 1411.83,512.53 1411.83,498.03 1410.5,483.5C 1538.49,482.167 1538.49,481.5 1410.5,481.5 Z"/></g>
<g><path style="opacity:0.992" fill="#000000" d="M 1680.5,481.5 C 1551.17,481.833 1551.17,482.167 1680.5,482.5C 1680.67,497.504 1680.5,512.504 1680,527.5C 1662.64,538.19 1650.47,553.19 1643.5,572.5C 1644.32,573.386 1645.32,573.719 1646.5,573.5C 1645.18,576.897 1643.68,580.23 1642,583.5C 1640.33,590.51 1638.83,597.51 1637.5,604.5C 1636.68,602.031 1636.18,599.365 1636,596.5C 1632.82,610.391 1630.16,624.391 1628,638.5C 1621.92,656.618 1610.09,661.784 1592.5,654C 1588.9,651.292 1586.4,647.792 1585,643.5C 1583.68,590.212 1583.02,536.878 1583,483.5C 1581.98,485.502 1581.15,487.502 1580.5,489.5C 1579.02,484.481 1580.85,481.147 1586,479.5C 1617.6,480.163 1649.1,480.83 1680.5,481.5 Z"/></g>
<g><path style="opacity:0.997" fill="#000000" d="M 1710.5,482.5 C 1765.17,482.5 1819.83,482.5 1874.5,482.5C 1874.33,628.834 1874.5,775.167 1875,921.5C 1875.08,927.059 1876.74,932.059 1880,936.5C 1880.46,935.906 1880.63,935.239 1880.5,934.5C 1882.53,935.048 1883.53,936.381 1883.5,938.5C 1890.19,939.837 1896.85,941.337 1903.5,943C 1904.06,943.383 1904.39,943.883 1904.5,944.5C 1901.48,944.123 1898.48,943.956 1895.5,944C 1904.42,945.187 1911.92,949.02 1918,955.5C 1923.32,973.659 1916.49,983.826 1897.5,986C 1827.17,986.667 1756.83,986.667 1686.5,986C 1666.37,982.866 1660.53,972.033 1669,953.5C 1672.68,949.577 1677.18,947.077 1682.5,946C 1680.87,945.506 1679.2,945.34 1677.5,945.5C 1678.06,944.21 1679.06,943.377 1680.5,943C 1686.15,941.574 1691.82,940.241 1697.5,939C 1702.63,935.72 1705.96,931.22 1707.5,925.5C 1707.34,927.527 1707.5,929.527 1708,931.5C 1708.92,928.899 1709.59,926.232 1710,923.5C 1710.5,776.5 1710.67,629.5 1710.5,482.5 Z"/></g>
<g><path style="opacity:0.991" fill="#000000" d="M 2004.5,482.5 C 2003.51,482.328 2002.84,482.662 2002.5,483.5C 2002.67,534.834 2002.5,586.168 2002,637.5C 2001.47,640.929 2000.63,644.262 1999.5,647.5C 1990.72,658.086 1980.05,660.252 1967.5,654C 1963.81,650.79 1960.98,646.956 1959,642.5C 1956.09,627.143 1953.09,611.809 1950,596.5C 1949.79,598.058 1949.29,599.391 1948.5,600.5C 1946.83,598.521 1946.17,596.188 1946.5,593.5C 1947.75,593.577 1948.58,594.244 1949,595.5C 1944.6,571.877 1933.77,551.71 1916.5,535C 1912.83,532.5 1909.17,530 1905.5,527.5C 1904.5,512.515 1904.17,497.515 1904.5,482.5C 1936.5,482.667 1968.5,482.5 2000.5,482C 1968.17,481.5 1935.84,481.333 1903.5,481.5C 1904.26,480.609 1905.26,479.942 1906.5,479.5C 1938.12,480.326 1969.79,480.826 2001.5,481C 2002.74,481.232 2003.74,481.732 2004.5,482.5 Z"/></g>
<g><path style="opacity:0.997" fill="#000000" d="M 2669.5,481.5 C 2731.33,480.501 2793.33,480.168 2855.5,480.5C 2855.5,481.5 2855.5,482.5 2855.5,483.5C 2854.5,650.999 2854.17,818.666 2854.5,986.5C 2793.5,986.667 2732.5,986.5 2671.5,986C 2657.75,984.249 2651.25,976.416 2652,962.5C 2650.25,966.791 2650.09,971.125 2651.5,975.5C 2650.88,975.389 2650.38,975.056 2650,974.5C 2648.46,966.832 2649.62,959.832 2653.5,953.5C 2652.99,956.176 2652.83,958.843 2653,961.5C 2654.34,957.49 2656.51,953.99 2659.5,951C 2667.47,947.675 2675.47,944.342 2683.5,941C 2686.16,938.331 2688,935.164 2689,931.5C 2690.15,865.857 2690.65,800.19 2690.5,734.5C 2690.65,668.81 2690.15,603.143 2689,537.5C 2687.66,533.49 2685.49,529.99 2682.5,527C 2676.88,524.846 2671.22,522.846 2665.5,521C 2653.94,515.631 2650.1,506.797 2654,494.5C 2657.8,487.062 2663.97,483.229 2672.5,483C 2732.83,482.667 2793.17,482.333 2853.5,482C 2792.17,481.5 2730.83,481.333 2669.5,481.5 Z"/></g>
<g><path style="opacity:0.994" fill="#010101" d="M 3038.5,482.5 C 3037.51,482.328 3036.84,482.662 3036.5,483.5C 3036.67,528.168 3036.5,572.835 3036,617.5C 3035.47,620.929 3034.63,624.262 3033.5,627.5C 3031.09,630.885 3027.76,633.051 3023.5,634C 3012.23,636.946 3004.39,633.113 3000,622.5C 2999.72,623.416 2999.22,624.082 2998.5,624.5C 2996.64,622.718 2995.64,620.385 2995.5,617.5C 2997.09,618.348 2998.26,619.681 2999,621.5C 2983.56,564.093 2946.22,532.093 2887,525.5C 2886.67,511.833 2886.33,498.167 2886,484.5C 2885.31,485.738 2884.81,485.738 2884.5,484.5C 2884.53,481.344 2886.2,479.678 2889.5,479.5C 2938.46,480.329 2987.46,480.829 3036.5,481C 3037.42,481.278 3038.08,481.778 3038.5,482.5 Z"/></g>
<g><path style="opacity:0.012" fill="#020202" d="M 2855.5,483.5 C 2856.33,648.666 2856.83,813.999 2857,979.5C 2859.34,982.807 2858.84,985.473 2855.5,987.5C 2855.5,819.5 2855.5,651.5 2855.5,483.5 Z"/></g>
<g><path style="opacity:0.092" fill="#1f1f1f" d="M 1903.5,481.5 C 1935.84,481.333 1968.17,481.5 2000.5,482C 1968.5,482.5 1936.5,482.667 1904.5,482.5C 1904.17,497.515 1904.5,512.515 1905.5,527.5C 1909.17,530 1912.83,532.5 1916.5,535C 1933.77,551.71 1944.6,571.877 1949,595.5C 1948.58,594.244 1947.75,593.577 1946.5,593.5C 1941.31,570.648 1929.98,551.314 1912.5,535.5C 1909.37,533.406 1906.21,531.406 1903,529.5C 1902.78,516.481 1902.28,503.481 1901.5,490.5C 1901.86,487.298 1902.53,484.298 1903.5,481.5 Z"/></g>
<g><path style="opacity:0.108" fill="#282828" d="M 1680.5,481.5 C 1681.5,481.5 1682.5,481.5 1683.5,481.5C 1684.76,497.157 1684.59,512.824 1683,528.5C 1672.41,535.091 1663.41,543.424 1656,553.5C 1652.83,560.216 1649.66,566.883 1646.5,573.5C 1645.32,573.719 1644.32,573.386 1643.5,572.5C 1650.47,553.19 1662.64,538.19 1680,527.5C 1680.5,512.504 1680.67,497.504 1680.5,482.5C 1551.17,482.167 1551.17,481.833 1680.5,481.5 Z"/></g>
<g><path style="opacity:0.078" fill="#181818" d="M 1410.5,481.5 C 1538.49,481.5 1538.49,482.167 1410.5,483.5C 1411.83,498.03 1411.83,512.53 1410.5,527C 1419.16,531.655 1426.66,537.822 1433,545.5C 1450.11,570.493 1459.44,598.16 1461,628.5C 1460.32,624.071 1459.32,619.737 1458,615.5C 1458.08,618.119 1458.25,620.786 1458.5,623.5C 1455.67,601.837 1449.5,581.17 1440,561.5C 1432.37,547.534 1421.7,536.534 1408,528.5C 1407.5,512.837 1407.33,497.17 1407.5,481.5C 1408.5,481.5 1409.5,481.5 1410.5,481.5 Z"/></g>
<g><path style="opacity:0.402" fill="#1f1f1f" d="M 1380.5,481.5 C 1381.5,481.5 1382.5,481.5 1383.5,481.5C 1383.53,628.805 1383.69,776.138 1384,923.5C 1384.45,930.576 1387.62,936.076 1393.5,940C 1405.81,940.182 1416.47,944.349 1425.5,952.5C 1433.71,971.684 1427.71,983.851 1407.5,989C 1335.5,989.667 1263.5,989.667 1191.5,989C 1183.64,987.596 1176.8,984.096 1171,978.5C 1169.08,975.138 1168.08,971.471 1168,967.5C 1167.5,967 1167,966.5 1166.5,966C 1168.07,963.07 1168.9,959.903 1169,956.5C 1171.03,953.308 1173.53,950.641 1176.5,948.5C 1177.87,948.343 1179.21,948.51 1180.5,949C 1178.39,950.141 1176.56,951.641 1175,953.5C 1166.49,971.956 1172.33,982.789 1192.5,986C 1262.83,986.667 1333.17,986.667 1403.5,986C 1410.66,985.836 1416.82,983.336 1422,978.5C 1429.77,965.81 1427.27,955.643 1414.5,948C 1406.5,945.667 1398.5,943.333 1390.5,941C 1384.26,936.02 1381.09,929.52 1381,921.5C 1380.5,775.167 1380.33,628.834 1380.5,482.5C 1161.83,482.167 1161.83,481.833 1380.5,481.5 Z"/></g>
<g><path style="opacity:0.418" fill="#3f3f3f" d="M 2002.5,483.5 C 2003.33,534.332 2003.83,585.332 2004,636.5C 2004.23,637.737 2004.73,638.737 2005.5,639.5C 2005.67,640.492 2005.34,641.158 2004.5,641.5C 2004.44,640.957 2004.11,640.624 2003.5,640.5C 2002.53,643.152 2001.19,645.486 1999.5,647.5C 2000.63,644.262 2001.47,640.929 2002,637.5C 2002.5,586.168 2002.67,534.834 2002.5,483.5 Z"/></g>
<g><path style="opacity:0.2" fill="#91952f" d="M 2333.5,410.5 C 2333.5,414.5 2333.5,418.5 2333.5,422.5C 2331.41,442.98 2328.91,463.314 2326,483.5C 2324.99,489.229 2323.66,494.896 2322,500.5C 2321.48,510.622 2320.48,520.622 2319,530.5C 2315.16,552.494 2311.49,574.494 2308,596.5C 2307.48,605.958 2306.48,615.291 2305,624.5C 2303.96,625.623 2303.29,626.956 2303,628.5C 2301.38,643.23 2299.72,657.897 2298,672.5C 2296.98,678.742 2295.48,684.742 2293.5,690.5C 2293.5,687.167 2293.5,683.833 2293.5,680.5C 2306.57,590.33 2319.9,500.33 2333.5,410.5 Z"/></g>
<g><path style="opacity:0.043" fill="#1e1e1e" d="M 1189.5,483.5 C 1189.83,498.848 1189.5,514.181 1188.5,529.5C 1177.86,535.473 1169.2,543.473 1162.5,553.5C 1161.2,554.357 1159.86,554.857 1158.5,555C 1165.33,543.5 1174.5,534.333 1186,527.5C 1186.33,512.833 1186.67,498.167 1187,483.5C 1187.77,482.402 1188.6,482.402 1189.5,483.5 Z"/></g>
<g><path style="opacity:0.153" fill="#373737" d="M 46.5,985.5 C 36.8958,979.025 33.7291,970.025 37,958.5C 39.0474,954.444 41.8807,950.944 45.5,948C 53.0507,944.725 60.7174,941.725 68.5,939C 70.3723,936.707 71.8723,934.207 73,931.5C 73.6667,800.5 73.6667,669.5 73,538.5C 72.0018,535.428 70.5018,532.594 68.5,530C 64.6072,527.983 60.6072,526.483 56.5,525.5C 55.4376,524.425 55.4376,523.425 56.5,522.5C 69.7425,523.908 76.5758,531.241 77,544.5C 77.6667,671.167 77.6667,797.833 77,924.5C 76.9784,931.45 74.4784,937.284 69.5,942C 62.8333,944.333 56.1667,946.667 49.5,949C 45.6119,951.222 42.7786,954.388 41,958.5C 37.2864,969.704 40.453,978.204 50.5,984C 48.9419,984.21 47.6085,984.71 46.5,985.5 Z"/></g>
<g><path style="opacity:0.441" fill="#1d1d1d" d="M 2669.5,481.5 C 2730.83,481.333 2792.17,481.5 2853.5,482C 2793.17,482.333 2732.83,482.667 2672.5,483C 2663.97,483.229 2657.8,487.062 2654,494.5C 2650.1,506.797 2653.94,515.631 2665.5,521C 2671.22,522.846 2676.88,524.846 2682.5,527C 2685.49,529.99 2687.66,533.49 2689,537.5C 2690.15,603.143 2690.65,668.81 2690.5,734.5C 2690.65,800.19 2690.15,865.857 2689,931.5C 2688,935.164 2686.16,938.331 2683.5,941C 2675.47,944.342 2667.47,947.675 2659.5,951C 2656.51,953.99 2654.34,957.49 2653,961.5C 2652.83,958.843 2652.99,956.176 2653.5,953.5C 2655.63,950.87 2657.96,948.37 2660.5,946C 2667.28,943.508 2673.95,941.508 2680.5,940C 2681.67,938.833 2682.83,937.667 2684,936.5C 2684.6,933.363 2685.6,930.363 2687,927.5C 2687.67,798.833 2687.67,670.167 2687,541.5C 2685.4,539.737 2684.9,537.904 2685.5,536C 2680.93,528.672 2674.26,524.839 2665.5,524.5C 2649.34,516.621 2645.34,504.621 2653.5,488.5C 2657.65,483.317 2662.99,480.984 2669.5,481.5 Z"/></g>
<g><path style="opacity:0.354" fill="#363636" d="M 3036.5,483.5 C 3037.66,528.665 3037.83,573.998 3037,619.5C 3036.68,622.666 3035.51,625.333 3033.5,627.5C 3034.63,624.262 3035.47,620.929 3036,617.5C 3036.5,572.835 3036.67,528.168 3036.5,483.5 Z"/></g>
<g><path style="opacity:0.156" fill="#1b1b1b" d="M 2002.5,483.5 C 2002.84,482.662 2003.51,482.328 2004.5,482.5C 2005.5,534.664 2005.83,586.997 2005.5,639.5C 2004.73,638.737 2004.23,637.737 2004,636.5C 2003.83,585.332 2003.33,534.332 2002.5,483.5 Z"/></g>
<g><path style="opacity:0.99" fill="#020202" d="M 718.5,583.5 C 717.625,581.432 716.459,579.432 715,577.5C 718.863,597.956 723.53,618.29 729,638.5C 729.186,635.964 729.686,633.631 730.5,631.5C 731.167,634.833 731.833,638.167 732.5,641.5C 731.176,640.15 730.176,640.317 729.5,642C 730.5,645.667 731.5,649.333 732.5,653C 726.121,673.686 720.621,694.52 716,715.5C 716.845,713.389 717.678,711.389 718.5,709.5C 718.664,712.187 718.497,714.854 718,717.5C 715.089,726.539 712.256,735.539 709.5,744.5C 708.778,744.082 708.278,743.416 708,742.5C 703.025,759.069 698.692,775.736 695,792.5C 695.716,790.121 696.883,788.121 698.5,786.5C 697.37,791.556 696.037,796.556 694.5,801.5C 693.91,799.01 693.743,796.343 694,793.5C 684.711,824.659 676.378,855.992 669,887.5C 669.342,885.381 670.175,885.047 671.5,886.5C 670.42,890.961 668.92,895.294 667,899.5C 666.274,906.869 666.441,914.202 667.5,921.5C 666.739,925.055 667.572,928.388 670,931.5C 672.167,933.667 674.333,935.833 676.5,938C 685.312,942.907 694.312,947.573 703.5,952C 710.088,958.145 712.255,965.645 710,974.5C 706.723,981.398 701.223,985.232 693.5,986C 656.167,986.667 618.833,986.667 581.5,986C 577.341,985.16 573.341,984.16 569.5,983C 570.381,983.708 571.047,984.542 571.5,985.5C 568.222,984.059 565.056,982.392 562,980.5C 560.525,977.079 558.859,973.746 557,970.5C 555.713,964.982 556.713,959.982 560,955.5C 567.243,947.589 576.076,942.422 586.5,940C 587.479,937.597 588.979,936.764 591,937.5C 593.529,935.037 596.363,933.037 599.5,931.5C 599.489,933.017 598.823,934.184 597.5,935C 598.167,935.667 598.833,935.667 599.5,935C 609.746,926.427 617.246,915.927 622,903.5C 628.928,883.777 634.595,863.777 639,843.5C 638.329,844.252 637.496,844.586 636.5,844.5C 639.896,831.906 643.063,819.239 646,806.5C 647.582,803.212 648.915,799.879 650,796.5C 650.333,793.833 650.667,791.167 651,788.5C 651.917,785.016 653.25,781.683 655,778.5C 656.64,771.515 658.14,764.515 659.5,757.5C 660.317,759.969 660.817,762.635 661,765.5C 666.801,746.625 671.801,727.625 676,708.5C 675.667,708.833 675.333,709.167 675,709.5C 673.309,712.336 672.143,715.002 671.5,717.5C 684.237,669.988 697.07,622.655 710,575.5C 713.726,573.646 716.392,574.646 718,578.5C 718.494,580.134 718.66,581.801 718.5,583.5 Z"/></g>
<g><path style="opacity:0.071" fill="#222222" d="M 718.5,583.5 C 722.136,599.562 726.136,615.562 730.5,631.5C 729.686,633.631 729.186,635.964 729,638.5C 723.53,618.29 718.863,597.956 715,577.5C 716.459,579.432 717.625,581.432 718.5,583.5 Z"/></g>
<g><path style="opacity:0.165" fill="#4a4b20" d="M 2198.5,469.5 C 2173.07,528.481 2147.07,587.148 2120.5,645.5C 2120.33,644.178 2120.66,643.011 2121.5,642C 2120.91,641.536 2120.24,641.369 2119.5,641.5C 2144.27,585.776 2168.94,530.109 2193.5,474.5C 2193.81,475.738 2194.31,475.738 2195,474.5C 2196.03,472.654 2197.2,470.987 2198.5,469.5 Z"/></g>
<g><path style="opacity:0.076" fill="#222222" d="M 2884.5,484.5 C 2884.81,485.738 2885.31,485.738 2886,484.5C 2886.33,498.167 2886.67,511.833 2887,525.5C 2946.22,532.093 2983.56,564.093 2999,621.5C 2998.26,619.681 2997.09,618.348 2995.5,617.5C 2987.7,592.864 2974.37,571.698 2955.5,554C 2951.64,552.475 2948.3,550.142 2945.5,547C 2932.83,539.842 2919.5,534.508 2905.5,531C 2900.83,530.667 2896.17,530.333 2891.5,530C 2889.43,528.477 2887.1,527.643 2884.5,527.5C 2883.45,513.123 2883.45,498.79 2884.5,484.5 Z"/></g>
<g><path style="opacity:0.991" fill="#000000" d="M 2973.5,637.5 C 2974.68,642.754 2975.35,648.088 2975.5,653.5C 2974.07,651.852 2973.24,649.852 2973,647.5C 2972.67,702.167 2972.33,756.833 2972,811.5C 2970.49,829.976 2960.99,835.81 2943.5,829C 2939.9,826.292 2937.4,822.792 2936,818.5C 2933.02,803.563 2927.69,789.563 2920,776.5C 2919.52,777.448 2919.35,778.448 2919.5,779.5C 2912.98,771.145 2905.31,763.978 2896.5,758C 2891.22,756.587 2886.22,754.753 2881.5,752.5C 2881.33,737.496 2881.5,722.496 2882,707.5C 2883.36,706.635 2884.53,705.635 2885.5,704.5C 2886.55,704.351 2887.55,704.517 2888.5,705C 2887.3,705.654 2887.3,706.154 2888.5,706.5C 2906.89,698.278 2920.06,684.945 2928,666.5C 2930.79,657.533 2933.46,648.533 2936,639.5C 2942,628.932 2950.84,625.765 2962.5,630C 2967.99,632.832 2971.16,637.332 2972,643.5C 2972.19,641.292 2972.69,639.292 2973.5,637.5 Z"/></g>
<g><path style="opacity:0.055" fill="#1c1c1c" d="M 3036.5,483.5 C 3036.84,482.662 3037.51,482.328 3038.5,482.5C 3038.67,529.835 3038.5,577.168 3038,624.5C 3034.2,633.439 3027.37,637.772 3017.5,637.5C 3009.66,637.686 3003.5,634.686 2999,628.5C 2998.51,627.207 2998.34,625.873 2998.5,624.5C 2999.22,624.082 2999.72,623.416 3000,622.5C 3004.39,633.113 3012.23,636.946 3023.5,634C 3027.76,633.051 3031.09,630.885 3033.5,627.5C 3035.51,625.333 3036.68,622.666 3037,619.5C 3037.83,573.998 3037.66,528.665 3036.5,483.5 Z"/></g>
<g><path style="opacity:0.102" fill="#212121" d="M 732.5,641.5 C 733.852,644.781 734.519,648.281 734.5,652C 733.702,660.849 731.535,669.349 728,677.5C 726.228,686.953 723.894,696.287 721,705.5C 720.8,707.32 719.966,708.653 718.5,709.5C 717.678,711.389 716.845,713.389 716,715.5C 720.621,694.52 726.121,673.686 732.5,653C 731.5,649.333 730.5,645.667 729.5,642C 730.176,640.317 731.176,640.15 732.5,641.5 Z"/></g>
<g><path style="opacity:0.141" fill="#1a1a1a" d="M 760.5,668.5 C 754.352,644.006 748.852,619.339 744,594.5C 743.427,592.359 742.594,590.359 741.5,588.5C 742.638,585.696 742.805,582.696 742,579.5C 740.024,573.613 739.024,567.613 739,561.5C 747.652,597.768 755.652,634.102 763,670.5C 762.583,669.244 761.75,668.577 760.5,668.5 Z"/></g>
<g><path style="opacity:0.247" fill="#1e1e1e" d="M 1999.5,647.5 C 2001.19,645.486 2002.53,643.152 2003.5,640.5C 2004.11,640.624 2004.44,640.957 2004.5,641.5C 1997.51,659.782 1984.84,664.949 1966.5,657C 1960.49,652.491 1956.33,646.658 1954,639.5C 1952.64,626.429 1950.81,613.429 1948.5,600.5C 1949.29,599.391 1949.79,598.058 1950,596.5C 1953.09,611.809 1956.09,627.143 1959,642.5C 1960.98,646.956 1963.81,650.79 1967.5,654C 1980.05,660.252 1990.72,658.086 1999.5,647.5 Z"/></g>
<g><path style="opacity:0.014" fill="#1c1c1c" d="M 2973.5,637.5 C 2972.69,639.292 2972.19,641.292 2972,643.5C 2971.16,637.332 2967.99,632.832 2962.5,630C 2950.84,625.765 2942,628.932 2936,639.5C 2933.46,648.533 2930.79,657.533 2928,666.5C 2920.06,684.945 2906.89,698.278 2888.5,706.5C 2887.3,706.154 2887.3,705.654 2888.5,705C 2887.55,704.517 2886.55,704.351 2885.5,704.5C 2891.25,701 2897.25,697.667 2903.5,694.5C 2918.56,682.7 2927.06,667.366 2929,648.5C 2931.05,644.346 2932.72,640.013 2934,635.5C 2942.08,625.778 2952.24,623.111 2964.5,627.5C 2968.58,629.907 2971.58,633.24 2973.5,637.5 Z"/></g>
<g><path style="opacity:0.1" fill="#202020" d="M 1144.5,594.5 C 1142.08,611.633 1138.92,628.633 1135,645.5C 1131.53,650.973 1127.03,655.473 1121.5,659C 1114.83,659.667 1108.17,659.667 1101.5,659C 1098.37,657.411 1095.37,655.578 1092.5,653.5C 1091.91,651.135 1090.75,649.135 1089,647.5C 1088.51,646.207 1088.34,644.873 1088.5,643.5C 1088.33,590.166 1088.5,536.832 1089,483.5C 1089.33,535.5 1089.67,587.5 1090,639.5C 1091.15,647.317 1095.32,652.817 1102.5,656C 1120.97,660.507 1131.81,653.341 1135,634.5C 1136.85,618.938 1139.85,603.605 1144,588.5C 1144.5,590.473 1144.66,592.473 1144.5,594.5 Z"/></g>
<g><path style="opacity:0.131" fill="#262626" d="M 1637.5,604.5 C 1635.52,610.322 1634.02,616.322 1633,622.5C 1634.23,638.198 1628.4,650.364 1615.5,659C 1600.31,663.597 1589.15,659.097 1582,645.5C 1580.52,593.538 1580.02,541.538 1580.5,489.5C 1581.15,487.502 1581.98,485.502 1583,483.5C 1583.02,536.878 1583.68,590.212 1585,643.5C 1586.4,647.792 1588.9,651.292 1592.5,654C 1610.09,661.784 1621.92,656.618 1628,638.5C 1630.16,624.391 1632.82,610.391 1636,596.5C 1636.18,599.365 1636.68,602.031 1637.5,604.5 Z"/></g>
<g><path style="opacity:0.235" fill="#1a1a1a" d="M 926.5,636.5 C 931.741,654.198 935.908,672.198 939,690.5C 942.196,696.732 943.862,703.398 944,710.5C 944.999,715.323 946.499,719.989 948.5,724.5C 947.683,726.969 947.183,729.635 947,732.5C 939.503,701.176 932.003,669.843 924.5,638.5C 924.747,637.287 925.414,636.62 926.5,636.5 Z"/></g>
<g><path style="opacity:0.141" fill="#1b1b1b" d="M 1710.5,482.5 C 1710.67,629.5 1710.5,776.5 1710,923.5C 1709.59,926.232 1708.92,928.899 1708,931.5C 1707.5,929.527 1707.34,927.527 1707.5,925.5C 1707.5,924.833 1707.5,924.167 1707.5,923.5C 1707.83,776.33 1708.83,629.33 1710.5,482.5 Z"/></g>
<g><path style="opacity:0.44" fill="#1c1c1c" d="M 1710.5,482.5 C 1765,481.501 1819.66,481.168 1874.5,481.5C 1876.33,627.497 1877.17,773.83 1877,920.5C 1878.06,925.201 1879.23,929.868 1880.5,934.5C 1880.63,935.239 1880.46,935.906 1880,936.5C 1876.74,932.059 1875.08,927.059 1875,921.5C 1874.5,775.167 1874.33,628.834 1874.5,482.5C 1819.83,482.5 1765.17,482.5 1710.5,482.5 Z"/></g>
<g><path style="opacity:0.176" fill="#666a25" d="M 2293.5,680.5 C 2293.5,683.833 2293.5,687.167 2293.5,690.5C 2293.5,691.167 2293.5,691.833 2293.5,692.5C 2292.83,692.5 2292.17,692.5 2291.5,692.5C 2291.72,688.295 2292.38,684.295 2293.5,680.5 Z"/></g>
<g><path style="opacity:0.023" fill="#000000" d="M 2975.5,690.5 C 2976.16,732.18 2975.49,773.513 2973.5,814.5C 2974.16,773.069 2974.83,731.736 2975.5,690.5 Z"/></g>
<g><path style="opacity:0.016" fill="#1a1a1a" d="M 484.5,629.5 C 473.754,669.594 449.087,697.594 410.5,713.5C 409.048,712.698 407.382,712.198 405.5,712C 448.652,696.181 474.485,665.681 483,620.5C 483.181,623.695 483.681,626.695 484.5,629.5 Z"/></g>
<g><path style="opacity:0.094" fill="#222222" d="M 269.5,481.5 C 292.169,481.333 314.836,481.5 337.5,482C 315.169,482.5 292.836,482.667 270.5,482.5C 270.5,496.167 270.5,509.833 270.5,523.5C 300.641,524.806 317.474,540.472 321,570.5C 321.667,603.167 321.667,635.833 321,668.5C 314.549,693.44 298.383,705.773 272.5,705.5C 272.333,718.504 272.5,731.504 273,744.5C 280.26,745.821 287.427,747.654 294.5,750C 305.759,755.904 313.259,764.737 317,776.5C 316.385,774.884 315.385,773.551 314,772.5C 313.601,772.728 313.435,773.062 313.5,773.5C 304.555,756.404 290.388,747.737 271,747.5C 270.581,746.328 269.915,745.328 269,744.5C 268.333,731.5 268.333,718.5 269,705.5C 270.579,703.959 272.413,702.792 274.5,702C 279.167,701.667 283.833,701.333 288.5,701C 292.46,699.357 296.46,697.69 300.5,696C 304.765,691.612 308.932,687.112 313,682.5C 314.598,679.702 315.765,676.702 316.5,673.5C 317.667,636.838 317.833,600.171 317,563.5C 314.683,557.895 312.349,552.228 310,546.5C 305.833,542 301.667,537.5 297.5,533C 293.117,531.438 288.784,529.771 284.5,528C 279.336,526.374 274.003,525.54 268.5,525.5C 267.916,513.089 267.249,500.756 266.5,488.5C 266.757,485.741 267.757,483.407 269.5,481.5 Z"/></g>
<g><path style="opacity:0.103" fill="#212121" d="M 659.5,757.5 C 663.218,744.111 667.218,730.778 671.5,717.5C 672.143,715.002 673.309,712.336 675,709.5C 675.333,709.167 675.667,708.833 676,708.5C 671.801,727.625 666.801,746.625 661,765.5C 660.817,762.635 660.317,759.969 659.5,757.5 Z"/></g>
<g><path style="opacity:0.176" fill="#989d2c" d="M 2291.5,692.5 C 2292.17,692.5 2292.83,692.5 2293.5,692.5C 2292.82,701.837 2291.99,711.17 2291,720.5C 2289.96,721.623 2289.29,722.956 2289,724.5C 2287.03,742.573 2284.53,760.573 2281.5,778.5C 2351.83,778.5 2422.17,778.5 2492.5,778.5C 2430.5,779.167 2368.5,779.833 2306.5,780.5C 2297.5,780.5 2288.5,780.5 2279.5,780.5C 2279.5,778.833 2279.5,777.167 2279.5,775.5C 2283.31,747.798 2287.31,720.131 2291.5,692.5 Z"/></g>
<g><path style="opacity:0.082" fill="#222222" d="M 709.5,744.5 C 706.412,758.749 702.745,772.749 698.5,786.5C 696.883,788.121 695.716,790.121 695,792.5C 698.692,775.736 703.025,759.069 708,742.5C 708.278,743.416 708.778,744.082 709.5,744.5 Z"/></g>
<g><path style="opacity:0.332" fill="#65692e" d="M 2279.5,775.5 C 2279.5,777.167 2279.5,778.833 2279.5,780.5C 2288.5,780.5 2297.5,780.5 2306.5,780.5C 2412.5,780.667 2518.5,780.5 2624.5,780C 2628.69,779.824 2632.69,779.324 2636.5,778.5C 2646.83,778.5 2657.17,778.5 2667.5,778.5C 2656.12,779.008 2644.79,780.008 2633.5,781.5C 2515.17,781.5 2396.83,781.5 2278.5,781.5C 2278.21,779.265 2278.54,777.265 2279.5,775.5 Z"/></g>
<g><path style="opacity:0.137" fill="#82871d" d="M 2492.5,778.5 C 2540.5,778.5 2588.5,778.5 2636.5,778.5C 2632.69,779.324 2628.69,779.824 2624.5,780C 2518.5,780.5 2412.5,780.667 2306.5,780.5C 2368.5,779.833 2430.5,779.167 2492.5,778.5 Z"/></g>
<g><path style="opacity:1" fill="#7c7f46" d="M 2269.5,787.5 C 2396.5,789.166 2523.83,790.166 2651.5,790.5C 2651.38,791.107 2651.04,791.44 2650.5,791.5C 2523.33,790.5 2396,790.167 2268.5,790.5C 2268.26,789.209 2268.6,788.209 2269.5,787.5 Z"/></g>
<g><path style="opacity:0.084" fill="#3b3c1c" d="M 2119.5,641.5 C 2120.24,641.369 2120.91,641.536 2121.5,642C 2120.66,643.011 2120.33,644.178 2120.5,645.5C 2086.29,724.911 2051.29,803.911 2015.5,882.5C 2015.74,881.209 2015.4,880.209 2014.5,879.5C 2049.2,799.974 2084.2,720.64 2119.5,641.5 Z"/></g>
<g><path style="opacity:0.329" fill="#434425" d="M 2667.5,778.5 C 2670.08,779.69 2670.91,781.69 2670,784.5C 2661.76,795.774 2653.26,806.774 2644.5,817.5C 2644.5,816.833 2644.5,816.167 2644.5,815.5C 2651.73,804.26 2659.39,793.26 2667.5,782.5C 2656.19,781.501 2644.85,781.168 2633.5,781.5C 2644.79,780.008 2656.12,779.008 2667.5,778.5 Z"/></g>
<g><path style="opacity:0.329" fill="#292929" d="M 318.5,913.5 C 318.485,909.44 318.985,905.44 320,901.5C 320.333,866.5 320.667,831.5 321,796.5C 321.667,831.833 321.667,867.167 321,902.5C 320.758,906.43 319.925,910.097 318.5,913.5 Z"/></g>
<g><path style="opacity:0.124" fill="#191919" d="M 957.5,765.5 C 961.244,779.598 964.411,793.932 967,808.5C 967.419,809.672 968.085,810.672 969,811.5C 970.238,821.853 972.738,831.853 976.5,841.5C 975.25,841.423 974.417,840.756 974,839.5C 973.667,840.5 973.333,841.5 973,842.5C 966.506,816.198 960.506,789.865 955,763.5C 955.708,764.381 956.542,765.047 957.5,765.5 Z"/></g>
<g><path style="opacity:0.073" fill="#1e1e1e" d="M 2975.5,653.5 C 2975.5,665.833 2975.5,678.167 2975.5,690.5C 2974.83,731.736 2974.16,773.069 2973.5,814.5C 2972.69,830.461 2964.36,836.961 2948.5,834C 2942.52,831.694 2937.69,827.86 2934,822.5C 2930.24,813.435 2927.57,804.102 2926,794.5C 2923.82,789.475 2921.65,784.475 2919.5,779.5C 2919.35,778.448 2919.52,777.448 2920,776.5C 2927.69,789.563 2933.02,803.563 2936,818.5C 2937.4,822.792 2939.9,826.292 2943.5,829C 2960.99,835.81 2970.49,829.976 2972,811.5C 2972.33,756.833 2972.67,702.167 2973,647.5C 2973.24,649.852 2974.07,651.852 2975.5,653.5 Z"/></g>
<g><path style="opacity:0.153" fill="#616427" d="M 2644.5,815.5 C 2644.5,816.167 2644.5,816.833 2644.5,817.5C 2638.99,826.525 2632.99,835.192 2626.5,843.5C 2625.39,843.557 2624.39,843.89 2623.5,844.5C 2629.77,834.294 2636.77,824.628 2644.5,815.5 Z"/></g>
<g><path style="opacity:0.991" fill="#010101" d="M 3036.5,989.5 C 3037.4,988.842 3038.4,988.176 3039.5,987.5C 2988.84,986.5 2938.17,986.167 2887.5,986.5C 2887.17,973.15 2887.5,959.817 2888.5,946.5C 2898.71,944.825 2908.71,942.325 2918.5,939C 2916.75,938.648 2915.09,938.148 2913.5,937.5C 2917.47,936.398 2921.47,935.065 2925.5,933.5C 2924.18,935.686 2922.18,937.186 2919.5,938C 2930,935.252 2939.67,930.585 2948.5,924C 2963.14,912.903 2975.64,899.736 2986,884.5C 2994.1,868.968 3001.1,852.968 3007,836.5C 3009.49,833.168 3012.66,830.668 3016.5,829C 3013.68,828.572 3011.01,829.072 3008.5,830.5C 3010.1,828.691 3012.1,827.358 3014.5,826.5C 3020.14,825.337 3025.8,825.17 3031.5,826C 3036.99,828.468 3040.49,832.635 3042,838.5C 3042.5,888.832 3042.67,939.166 3042.5,989.5C 3040.5,989.5 3038.5,989.5 3036.5,989.5 Z"/></g>
<g><path style="opacity:0.118" fill="#1b1b1b" d="M 2925.5,933.5 C 2934.18,929.325 2942.52,924.492 2950.5,919C 2960,910.167 2969.17,901 2978,891.5C 2988.13,875.236 2996.13,857.902 3002,839.5C 3003.61,836.06 3005.78,833.06 3008.5,830.5C 3011.01,829.072 3013.68,828.572 3016.5,829C 3012.66,830.668 3009.49,833.168 3007,836.5C 3001.1,852.968 2994.1,868.968 2986,884.5C 2975.64,899.736 2963.14,912.903 2948.5,924C 2939.67,930.585 2930,935.252 2919.5,938C 2922.18,937.186 2924.18,935.686 2925.5,933.5 Z"/></g>
<g><path style="opacity:0.104" fill="#1f1f1f" d="M 805.5,865.5 C 771.167,865.5 736.833,865.5 702.5,865.5C 702.334,861.486 702.501,857.486 703,853.5C 705.436,841.102 708.269,828.769 711.5,816.5C 738.56,816.694 765.726,816.361 793,815.5C 788.48,793.587 783.813,771.587 779,749.5C 777.199,742.431 775.199,735.431 773,728.5C 772.503,726.19 772.337,723.857 772.5,721.5C 772.746,718.707 772.913,715.707 773,712.5C 781.012,747.547 789.178,782.547 797.5,817.5C 769.841,818.5 742.175,818.833 714.5,818.5C 711.641,832.938 708.307,847.271 704.5,861.5C 738.828,862.333 773.162,862.833 807.5,863C 808.554,864.388 808.72,865.888 808,867.5C 807.583,866.244 806.75,865.577 805.5,865.5 Z"/></g>
<g><path style="opacity:0.071" fill="#1f1f1f" d="M 694.5,801.5 C 686.93,829.909 679.264,858.243 671.5,886.5C 670.175,885.047 669.342,885.381 669,887.5C 676.378,855.992 684.711,824.659 694,793.5C 693.743,796.343 693.91,799.01 694.5,801.5 Z"/></g>
<g><path style="opacity:0.098" fill="#1a1a1a" d="M 599.5,931.5 C 609.649,921.583 617.149,909.916 622,896.5C 626.943,879.147 631.776,861.813 636.5,844.5C 637.496,844.586 638.329,844.252 639,843.5C 634.595,863.777 628.928,883.777 622,903.5C 617.246,915.927 609.746,926.427 599.5,935C 598.833,935.667 598.167,935.667 597.5,935C 598.823,934.184 599.489,933.017 599.5,931.5 Z"/></g>
<g><path style="opacity:0.161" fill="#1e1e17" d="M 2014.5,879.5 C 2015.4,880.209 2015.74,881.209 2015.5,882.5C 2003.29,911.251 1990.79,939.918 1978,968.5C 1977.83,968 1977.67,967.5 1977.5,967C 1978.87,964.681 1979.54,962.181 1979.5,959.5C 1990.23,932.433 2001.89,905.767 2014.5,879.5 Z"/></g>
<g><path style="opacity:0.235" fill="#1a1a1a" d="M 451.5,760.5 C 456.741,763.735 461.408,767.735 465.5,772.5C 484.791,796.372 494.124,823.705 493.5,854.5C 494.001,893.654 479.668,926.154 450.5,952C 430.532,967.638 408.199,978.305 383.5,984C 380.183,984.498 376.85,984.665 373.5,984.5C 370.813,984.664 368.146,984.497 365.5,984C 383.242,981.974 400.242,977.307 416.5,970C 465.263,947.047 489.93,908.547 490.5,854.5C 491.084,816.855 477.417,785.689 449.5,761C 450.094,760.536 450.761,760.369 451.5,760.5 Z"/></g>
<g><path style="opacity:0.128" fill="#181818" d="M 2913.5,937.5 C 2915.09,938.148 2916.75,938.648 2918.5,939C 2908.71,942.325 2898.71,944.825 2888.5,946.5C 2887.5,959.817 2887.17,973.15 2887.5,986.5C 2938.17,986.167 2988.84,986.5 3039.5,987.5C 3038.4,988.176 3037.4,988.842 3036.5,989.5C 2986.5,989.833 2936.5,989.5 2886.5,988.5C 2886.19,987.692 2885.69,987.025 2885,986.5C 2884.17,972.821 2884.33,959.154 2885.5,945.5C 2886.29,944.758 2886.95,943.925 2887.5,943C 2893.59,940.987 2899.92,939.987 2906.5,940C 2908.81,939.009 2911.14,938.176 2913.5,937.5 Z"/></g>
<g><path style="opacity:0.108" fill="#1d1d1d" d="M 318.5,913.5 C 317.81,918.887 315.977,923.887 313,928.5C 302.23,942.049 288.063,948.382 270.5,947.5C 270.5,960.5 270.5,973.5 270.5,986.5C 301.207,986.814 331.874,986.314 362.5,985C 361.5,985.333 360.5,985.667 359.5,986C 355.312,986.176 351.312,986.676 347.5,987.5C 346.527,987.987 345.527,988.487 344.5,989C 319.169,989.5 293.836,989.667 268.5,989.5C 268.515,976.949 267.848,964.449 266.5,952C 267.609,949.953 268.276,947.787 268.5,945.5C 279.418,944.256 289.918,941.589 300,937.5C 307.653,932.266 312.82,925.266 315.5,916.5C 316.728,915.694 317.728,914.694 318.5,913.5 Z"/></g>
<g><path style="opacity:0.116" fill="#161616" d="M 240.5,989.5 C 179.166,989.667 117.832,989.5 56.5,989C 55.7562,987.961 54.7562,987.461 53.5,987.5C 53.0472,986.542 52.3805,985.708 51.5,985C 53.8454,984.83 56.1788,985.163 58.5,986C 119.167,986.333 179.833,986.667 240.5,987C 239.402,987.77 239.402,988.603 240.5,989.5 Z"/></g>
<g><path style="opacity:0.138" fill="#181818" d="M 667.5,921.5 C 669.447,924.139 671.113,927.139 672.5,930.5C 674.457,932.491 676.457,934.491 678.5,936.5C 686.363,940.631 694.363,944.465 702.5,948C 712.172,954.714 715.672,963.881 713,975.5C 709.303,982.766 703.47,987.266 695.5,989C 656.833,989.667 618.167,989.667 579.5,989C 576.497,988.251 573.831,987.085 571.5,985.5C 571.047,984.542 570.381,983.708 569.5,983C 573.341,984.16 577.341,985.16 581.5,986C 618.833,986.667 656.167,986.667 693.5,986C 701.223,985.232 706.723,981.398 710,974.5C 712.255,965.645 710.088,958.145 703.5,952C 694.312,947.573 685.312,942.907 676.5,938C 674.333,935.833 672.167,933.667 670,931.5C 667.572,928.388 666.739,925.055 667.5,921.5 Z"/></g>
<g><path style="opacity:0.136" fill="#181818" d="M 985.5,883.5 C 989.094,896.95 992.26,910.616 995,924.5C 996.848,928.704 998.515,933.037 1000,937.5C 1004.59,941.628 1009.76,944.461 1015.5,946C 1018.61,948.37 1021.94,950.37 1025.5,952C 1036.41,965.644 1034.41,977.144 1019.5,986.5C 1016.7,987.105 1014.03,987.938 1011.5,989C 943.167,989.667 874.833,989.667 806.5,989C 802.5,987.333 798.5,985.667 794.5,984C 792.452,981.297 790.618,978.464 789,975.5C 788.473,972.419 787.64,969.419 786.5,966.5C 787.861,963.367 788.694,960.033 789,956.5C 789.708,955.619 790.542,954.953 791.5,954.5C 791.435,954.938 791.601,955.272 792,955.5C 792.725,953.842 793.892,953.342 795.5,954C 793.959,955.579 792.792,957.413 792,959.5C 788.696,973.714 794.196,982.548 808.5,986C 875.167,986.667 941.833,986.667 1008.5,986C 1025.45,984.058 1031.61,974.891 1027,958.5C 1020.39,951.774 1012.56,946.94 1003.5,944C 1001.67,942.167 999.833,940.333 998,938.5C 990.288,917.315 984.621,895.649 981,873.5C 981.911,877.23 983.411,880.563 985.5,883.5 Z"/></g>
<g><path style="opacity:0.135" fill="#1a1a1a" d="M 1904.5,944.5 C 1916.25,946.807 1922.58,953.973 1923.5,966C 1923.53,969.59 1923.03,973.09 1922,976.5C 1916.17,983.157 1909.01,987.323 1900.5,989C 1828.83,989.667 1757.17,989.667 1685.5,989C 1663.3,984.757 1656.8,972.257 1666,951.5C 1669.01,947.748 1672.84,945.748 1677.5,945.5C 1679.2,945.34 1680.87,945.506 1682.5,946C 1677.18,947.077 1672.68,949.577 1669,953.5C 1660.53,972.033 1666.37,982.866 1686.5,986C 1756.83,986.667 1827.17,986.667 1897.5,986C 1916.49,983.826 1923.32,973.659 1918,955.5C 1911.92,949.02 1904.42,945.187 1895.5,944C 1898.48,943.956 1901.48,944.123 1904.5,944.5 Z"/></g>
<g><path style="opacity:0.114" fill="#1b1b1b" d="M 2855.5,483.5 C 2855.5,651.5 2855.5,819.5 2855.5,987.5C 2825.01,988.833 2794.17,989.5 2763,989.5C 2732.17,989.333 2701.33,989.167 2670.5,989C 2663.69,987.842 2657.86,984.675 2653,979.5C 2652.21,978.255 2651.71,976.922 2651.5,975.5C 2650.09,971.125 2650.25,966.791 2652,962.5C 2651.25,976.416 2657.75,984.249 2671.5,986C 2732.5,986.5 2793.5,986.667 2854.5,986.5C 2854.17,818.666 2854.5,650.999 2855.5,483.5 Z"/></g>
<g><path style="opacity:0.562" fill="#363634" d="M 1965.5,1001.5 C 2096.17,1001.5 2226.83,1001.5 2357.5,1001.5C 2351.83,1002.17 2346.17,1002.83 2340.5,1003.5C 2335.17,1003.5 2329.83,1003.5 2324.5,1003.5C 2204.83,1002.83 2085.17,1002.17 1965.5,1001.5 Z"/></g>
<g><path style="opacity:0.171" fill="#1f1f1d" d="M 1974.5,969.5 C 1975.55,969.351 1976.55,969.517 1977.5,970C 1972.83,980.333 1968.17,990.667 1963.5,1001C 1964.09,1001.46 1964.76,1001.63 1965.5,1001.5C 2085.17,1002.17 2204.83,1002.83 2324.5,1003.5C 2203.16,1003.96 2081.83,1003.96 1960.5,1003.5C 1960.2,1001.4 1960.53,999.396 1961.5,997.5C 1965.94,988.232 1970.27,978.898 1974.5,969.5 Z"/></g>
<g><path style="opacity:0.271" fill="#4a4c20" d="M 2357.5,1001.5 C 2371.5,1001.33 2385.5,1001.5 2399.5,1002C 2386.93,1021.65 2374.27,1041.15 2361.5,1060.5C 2361.67,1059.51 2361.34,1058.84 2360.5,1058.5C 2371.4,1040.96 2382.56,1023.63 2394,1006.5C 2394.48,1005.55 2394.65,1004.55 2394.5,1003.5C 2376.5,1003.5 2358.5,1003.5 2340.5,1003.5C 2346.17,1002.83 2351.83,1002.17 2357.5,1001.5 Z"/></g>
<g><path style="opacity:0.275" fill="#888c28" d="M 2626.5,843.5 C 2605.36,873.681 2583.69,903.681 2561.5,933.5C 2560.2,935.758 2559.2,938.092 2558.5,940.5C 2557.5,940.5 2556.5,940.5 2555.5,940.5C 2555.65,941.552 2555.48,942.552 2555,943.5C 2482.36,1044.98 2409.52,1146.31 2336.5,1247.5C 2336.7,1245.31 2337.37,1243.31 2338.5,1241.5C 2432.77,1108.63 2527.77,976.296 2623.5,844.5C 2624.39,843.89 2625.39,843.557 2626.5,843.5 Z"/></g>
<g><path style="opacity:0.086" fill="#595b21" d="M 2360.5,1058.5 C 2361.34,1058.84 2361.67,1059.51 2361.5,1060.5C 2250.19,1236.46 2138.53,1412.12 2026.5,1587.5C 2025.83,1587.5 2025.17,1587.5 2024.5,1587.5C 2136.39,1411.32 2248.39,1234.99 2360.5,1058.5 Z"/></g>
<g><path style="opacity:0.167" fill="#242422" d="M 2456.5,1299.5 C 2456.13,1300.69 2455.3,1301.36 2454,1301.5C 2425.88,1293.89 2397.72,1293.56 2369.5,1300.5C 2368.49,1299.33 2367.15,1298.66 2365.5,1298.5C 2379.9,1294.51 2394.74,1292.51 2410,1292.5C 2424.35,1293.12 2438.52,1294.62 2452.5,1297C 2453.86,1297.93 2455.19,1298.77 2456.5,1299.5 Z"/></g>
<g><path style="opacity:0.984" fill="#000000" d="M 1220.5,1320.5 C 1217.69,1320.69 1215.02,1321.36 1212.5,1322.5C 1213.85,1321.18 1213.68,1320.18 1212,1319.5C 1179.47,1331.2 1156.97,1353.2 1144.5,1385.5C 1145.23,1386.09 1146.23,1386.09 1147.5,1385.5C 1146.48,1387.54 1145.48,1389.54 1144.5,1391.5C 1144.66,1390.13 1144.49,1388.79 1144,1387.5C 1131.37,1423.82 1131.37,1460.15 1144,1496.5C 1144.28,1495.58 1144.78,1494.92 1145.5,1494.5C 1146.81,1495.47 1147.47,1496.8 1147.5,1498.5C 1146.23,1497.91 1145.23,1497.91 1144.5,1498.5C 1168.09,1551.65 1209.09,1576.15 1267.5,1572C 1303.72,1567.9 1332.72,1551.4 1354.5,1522.5C 1355,1521.48 1355.67,1521.31 1356.5,1522C 1361.13,1525.63 1365.47,1529.63 1369.5,1534C 1351,1558.48 1327,1575.15 1297.5,1584C 1299.13,1584.49 1300.8,1584.66 1302.5,1584.5C 1300.4,1585.91 1298.06,1586.91 1295.5,1587.5C 1296.85,1586.18 1296.68,1585.18 1295,1584.5C 1246.1,1596.76 1201.6,1587.93 1161.5,1558C 1128.26,1526.5 1112.26,1487.67 1113.5,1441.5C 1113.26,1411.1 1120.43,1383.1 1135,1357.5C 1152.46,1330.38 1176.63,1311.88 1207.5,1302C 1206.26,1301.77 1205.26,1301.27 1204.5,1300.5C 1204.84,1299.66 1205.51,1299.33 1206.5,1299.5C 1207.37,1300.53 1208.54,1301.19 1210,1301.5C 1259.35,1287.71 1304.52,1295.87 1345.5,1326C 1350.97,1330.47 1356.13,1335.3 1361,1340.5C 1361.67,1341.17 1361.67,1341.83 1361,1342.5C 1357,1346.5 1353,1350.5 1349,1354.5C 1311.65,1314.95 1266.81,1303.12 1214.5,1319C 1216.71,1319.19 1218.71,1319.69 1220.5,1320.5 Z"/></g>
<g><path style="opacity:0.985" fill="#000000" d="M 2456.5,1299.5 C 2458.38,1299.23 2459.71,1299.9 2460.5,1301.5C 2459.13,1301.34 2457.79,1301.51 2456.5,1302C 2479.55,1309.94 2499.39,1322.77 2516,1340.5C 2516.67,1341.17 2516.67,1341.83 2516,1342.5C 2512,1346.5 2508,1350.5 2504,1354.5C 2469.69,1317.79 2427.86,1304.95 2378.5,1316C 2372.15,1317.5 2366.15,1319.67 2360.5,1322.5C 2330.69,1334.81 2310.19,1356.14 2299,1386.5C 2295.08,1396.51 2292.58,1406.84 2291.5,1417.5C 2286.17,1452.18 2291.67,1485.18 2308,1516.5C 2331.41,1553.68 2365.24,1572.35 2409.5,1572.5C 2451.79,1572.19 2485.46,1555.19 2510.5,1521.5C 2515.61,1525.11 2520.28,1529.28 2524.5,1534C 2495.55,1571.06 2457.38,1589.56 2410,1589.5C 2336.14,1587.63 2290.14,1550.96 2272,1479.5C 2270.5,1471.4 2269.33,1463.4 2268.5,1455.5C 2265.97,1419.31 2273.8,1385.64 2292,1354.5C 2310.8,1326.56 2336.63,1308.56 2369.5,1300.5C 2397.72,1293.56 2425.88,1293.89 2454,1301.5C 2455.3,1301.36 2456.13,1300.69 2456.5,1299.5 Z"/></g>
<g><path style="opacity:0.272" fill="#2b2b2b" d="M 1594.5,1318.5 C 1586.01,1317.67 1577.34,1317.17 1568.5,1317C 1599.83,1316.5 1631.16,1316.33 1662.5,1316.5C 1662.5,1310.83 1662.5,1305.17 1662.5,1299.5C 1593.17,1299.5 1523.83,1299.5 1454.5,1299.5C 1455.05,1305.79 1454.39,1311.79 1452.5,1317.5C 1451.31,1310.65 1451.31,1303.65 1452.5,1296.5C 1523.17,1296.33 1593.83,1296.5 1664.5,1297C 1665.83,1304 1665.83,1311 1664.5,1318C 1641.17,1318.5 1617.84,1318.67 1594.5,1318.5 Z"/></g>
<g><path style="opacity:0.982" fill="#000000" d="M 295.5,1296.5 C 279.995,1297.17 264.328,1297.83 248.5,1298.5C 304.496,1299.5 360.496,1299.83 416.5,1299.5C 416.5,1305.17 416.5,1310.83 416.5,1316.5C 366.833,1316.5 317.167,1316.5 267.5,1316.5C 266.501,1354.33 266.168,1392.33 266.5,1430.5C 312.833,1430.5 359.167,1430.5 405.5,1430.5C 407.292,1435.75 408.126,1441.41 408,1447.5C 408.383,1446.94 408.883,1446.61 409.5,1446.5C 409.5,1448.5 408.5,1449.5 406.5,1449.5C 360.845,1447.5 314.845,1446.84 268.5,1447.5C 266.506,1487.49 265.839,1527.82 266.5,1568.5C 317.167,1568.5 367.833,1568.5 418.5,1568.5C 419.489,1573.98 419.822,1579.64 419.5,1585.5C 361.833,1585.5 304.167,1585.5 246.5,1585.5C 246.667,1490.5 246.5,1395.5 246,1300.5C 245.833,1395.33 245.333,1490 244.5,1584.5C 243.883,1584.39 243.383,1584.06 243,1583.5C 242.833,1569.67 242.667,1555.83 242.5,1542C 243.303,1461.66 243.636,1381.16 243.5,1300.5C 244.415,1299.67 245.081,1298.67 245.5,1297.5C 262.153,1296.5 278.82,1296.17 295.5,1296.5 Z"/></g>
<g><path style="opacity:0.977" fill="#000000" d="M 574.5,1300.5 C 574.5,1389.83 574.5,1479.17 574.5,1568.5C 620.833,1568.5 667.167,1568.5 713.5,1568.5C 713.5,1574.17 713.5,1579.83 713.5,1585.5C 660.489,1584.84 607.823,1585.5 555.5,1587.5C 554.5,1587.5 553.5,1587.5 552.5,1587.5C 552.5,1586.5 552.5,1585.5 552.5,1584.5C 553.117,1584.61 553.617,1584.94 554,1585.5C 554.5,1490.17 554.667,1394.83 554.5,1299.5C 561.354,1299.18 568.021,1299.51 574.5,1300.5 Z"/></g>
<g><path style="opacity:0.978" fill="#000000" d="M 961.5,1296.5 C 974.167,1296.5 986.833,1296.5 999.5,1296.5C 1001.65,1302.79 1001.99,1309.12 1000.5,1315.5C 1000.11,1310.5 999.611,1305.5 999,1300.5C 998.501,1305.82 998.334,1311.16 998.5,1316.5C 948.5,1316.5 898.5,1316.5 848.5,1316.5C 848.5,1354.5 848.5,1392.5 848.5,1430.5C 895.168,1430.67 941.835,1430.5 988.5,1430C 979.685,1429.13 971.018,1428.29 962.5,1427.5C 972.247,1427.08 981.914,1427.58 991.5,1429C 992.147,1432.25 992.481,1435.58 992.5,1439C 992.45,1442.6 991.783,1445.94 990.5,1449C 943.835,1449.5 897.168,1449.67 850.5,1449.5C 851.482,1487.47 851.815,1525.47 851.5,1563.5C 850.883,1563.39 850.383,1563.06 850,1562.5C 849.5,1524.5 849.333,1486.5 849.5,1448.5C 895.835,1448.67 942.168,1448.5 988.5,1448C 941.835,1447.5 895.168,1447.33 848.5,1447.5C 848.5,1487.83 848.5,1528.17 848.5,1568.5C 899.167,1568.5 949.833,1568.5 1000.5,1568.5C 1001.49,1573.98 1001.82,1579.64 1001.5,1585.5C 943.833,1585.5 886.167,1585.5 828.5,1585.5C 828.5,1490.17 828.5,1394.83 828.5,1299.5C 884.171,1299.83 939.837,1299.5 995.5,1298.5C 984.007,1297.83 972.674,1297.17 961.5,1296.5 Z"/></g>
<g><path style="opacity:0.972" fill="#000000" d="M 1594.5,1318.5 C 1586.83,1318.5 1579.17,1318.5 1571.5,1318.5C 1571.5,1322.5 1571.5,1326.5 1571.5,1330.5C 1570.88,1330.39 1570.38,1330.06 1570,1329.5C 1569.67,1327.17 1569.33,1324.83 1569,1322.5C 1568.5,1410.17 1568.33,1497.83 1568.5,1585.5C 1561.42,1586.13 1554.75,1585.46 1548.5,1583.5C 1549.16,1494.16 1548.5,1405.16 1546.5,1316.5C 1516.16,1316.33 1485.83,1316.5 1455.5,1317C 1456.42,1317.28 1457.08,1317.78 1457.5,1318.5C 1457.44,1319.04 1457.11,1319.38 1456.5,1319.5C 1454.97,1319.01 1453.64,1318.34 1452.5,1317.5C 1454.39,1311.79 1455.05,1305.79 1454.5,1299.5C 1523.83,1299.5 1593.17,1299.5 1662.5,1299.5C 1662.5,1305.17 1662.5,1310.83 1662.5,1316.5C 1631.16,1316.33 1599.83,1316.5 1568.5,1317C 1577.34,1317.17 1586.01,1317.67 1594.5,1318.5 Z"/></g>
<g><path style="opacity:0.983" fill="#000000" d="M 1920.5,1303.5 C 1922.43,1304.11 1924.1,1305.11 1925.5,1306.5C 1924.45,1306.35 1923.45,1306.52 1922.5,1307C 1959.28,1324.05 1975.78,1352.88 1972,1393.5C 1965.92,1427.92 1946.08,1450.09 1912.5,1460C 1913.79,1460.49 1915.13,1460.66 1916.5,1460.5C 1915.79,1461.4 1914.79,1461.74 1913.5,1461.5C 1913.37,1463.29 1913.7,1464.96 1914.5,1466.5C 1912.03,1465.39 1911.03,1463.39 1911.5,1460.5C 1908,1460.57 1907.5,1461.9 1910,1464.5C 1928.86,1492.23 1947.69,1519.9 1966.5,1547.5C 1974.61,1560.12 1982.94,1572.62 1991.5,1585C 1983.5,1585.67 1975.5,1585.67 1967.5,1585C 1963.6,1579.34 1959.6,1573.84 1955.5,1568.5C 1935.66,1537.48 1915.33,1506.82 1894.5,1476.5C 1892.42,1472.57 1890.09,1468.74 1887.5,1465C 1857.5,1464.5 1827.5,1464.33 1797.5,1464.5C 1797.5,1504.83 1797.5,1545.17 1797.5,1585.5C 1790.83,1585.5 1784.17,1585.5 1777.5,1585.5C 1777.5,1490.17 1777.5,1394.83 1777.5,1299.5C 1815.83,1299.33 1854.17,1299.5 1892.5,1300C 1902.35,1301.55 1912.02,1303.55 1921.5,1306C 1920.75,1305.33 1920.41,1304.5 1920.5,1303.5 Z M 1872.5,1444.5 C 1848.17,1444.5 1823.83,1444.5 1799.5,1444.5C 1800.8,1403.14 1800.8,1361.8 1799.5,1320.5C 1812.65,1319.17 1826.15,1318.5 1840,1318.5C 1862.04,1317.54 1883.87,1319.04 1905.5,1323C 1917.26,1328.3 1927.76,1335.46 1937,1344.5C 1938.55,1349.27 1940.88,1353.6 1944,1357.5C 1952.77,1383.73 1947.94,1407.07 1929.5,1427.5C 1912.7,1440.14 1893.7,1445.81 1872.5,1444.5 Z"/></g>
<g><path style="opacity:0.009" fill="#060606" d="M 824.5,1306.5 C 826.002,1348.49 826.668,1390.66 826.5,1433C 826.601,1481.01 825.934,1528.84 824.5,1576.5C 824.5,1486.5 824.5,1396.5 824.5,1306.5 Z"/></g>
<g><path style="opacity:0.186" fill="#262626" d="M 577.5,1563.5 C 576.883,1563.61 576.383,1563.94 576,1564.5C 575.833,1476.33 575.333,1388.33 574.5,1300.5C 568.021,1299.51 561.354,1299.18 554.5,1299.5C 554.667,1394.83 554.5,1490.17 554,1585.5C 553.617,1584.94 553.117,1584.61 552.5,1584.5C 551.827,1491.82 551.161,1398.98 550.5,1306C 551.483,1302.89 552.15,1299.72 552.5,1296.5C 560.752,1296.18 568.919,1296.52 577,1297.5C 577.5,1386.17 577.667,1474.83 577.5,1563.5 Z"/></g>
<g><path style="opacity:0.264" fill="#282828" d="M 1000.5,1315.5 C 1000.59,1316.5 1000.25,1317.33 999.5,1318C 950.163,1318.17 900.83,1318.67 851.5,1319.5C 851.291,1320.09 850.957,1320.59 850.5,1321C 851.833,1356.33 851.833,1391.67 850.5,1427C 887.832,1427.5 925.165,1427.67 962.5,1427.5C 971.018,1428.29 979.685,1429.13 988.5,1430C 941.835,1430.5 895.168,1430.67 848.5,1430.5C 848.5,1392.5 848.5,1354.5 848.5,1316.5C 898.5,1316.5 948.5,1316.5 998.5,1316.5C 998.334,1311.16 998.501,1305.82 999,1300.5C 999.611,1305.5 1000.11,1310.5 1000.5,1315.5 Z"/></g>
<g><path style="opacity:0.258" fill="#252525" d="M 1546.5,1316.5 C 1546.5,1316.83 1546.5,1317.17 1546.5,1317.5C 1535.32,1317.17 1524.32,1317.51 1513.5,1318.5C 1494.83,1318.5 1476.17,1318.5 1457.5,1318.5C 1457.08,1317.78 1456.42,1317.28 1455.5,1317C 1485.83,1316.5 1516.16,1316.33 1546.5,1316.5 Z"/></g>
<g><path style="opacity:0.014" fill="#000000" d="M 1513.5,1318.5 C 1524.32,1317.51 1535.32,1317.17 1546.5,1317.5C 1546.5,1407.17 1546.5,1496.83 1546.5,1586.5C 1545.5,1497.33 1545.17,1408 1545.5,1318.5C 1534.83,1318.5 1524.17,1318.5 1513.5,1318.5 Z"/></g>
<g><path style="opacity:0.241" fill="#252525" d="M 1797.5,1316.5 C 1827.17,1316.33 1856.84,1316.5 1886.5,1317C 1909.67,1318.99 1928.17,1329.16 1942,1347.5C 1957.73,1377.83 1953.9,1405.33 1930.5,1430C 1917.87,1439.81 1903.54,1445.47 1887.5,1447C 1857.5,1447.5 1827.5,1447.67 1797.5,1447.5C 1797.5,1403.83 1797.5,1360.17 1797.5,1316.5 Z M 1872.5,1444.5 C 1848.17,1444.5 1823.83,1444.5 1799.5,1444.5C 1800.8,1403.14 1800.8,1361.8 1799.5,1320.5C 1812.65,1319.17 1826.15,1318.5 1840,1318.5C 1862.04,1317.54 1883.87,1319.04 1905.5,1323C 1917.26,1328.3 1927.76,1335.46 1937,1344.5C 1938.55,1349.27 1940.88,1353.6 1944,1357.5C 1952.77,1383.73 1947.94,1407.07 1929.5,1427.5C 1912.7,1440.14 1893.7,1445.81 1872.5,1444.5 Z"/></g>
<g><path style="opacity:0.136" fill="#232323" d="M 2460.5,1301.5 C 2462.53,1301.34 2464.53,1301.5 2466.5,1302C 2475.06,1306.14 2483.39,1310.81 2491.5,1316C 2499.99,1323.32 2508.66,1330.48 2517.5,1337.5C 2518.83,1340.17 2518.83,1342.83 2517.5,1345.5C 2513.12,1349.72 2508.62,1353.72 2504,1357.5C 2498.68,1353.34 2493.84,1348.68 2489.5,1343.5C 2461.16,1320.23 2428.49,1311.07 2391.5,1316C 2387.62,1317.19 2383.62,1317.86 2379.5,1318C 2373.07,1320.81 2366.41,1322.98 2359.5,1324.5C 2359.83,1323.83 2360.17,1323.17 2360.5,1322.5C 2366.15,1319.67 2372.15,1317.5 2378.5,1316C 2427.86,1304.95 2469.69,1317.79 2504,1354.5C 2508,1350.5 2512,1346.5 2516,1342.5C 2516.67,1341.83 2516.67,1341.17 2516,1340.5C 2499.39,1322.77 2479.55,1309.94 2456.5,1302C 2457.79,1301.51 2459.13,1301.34 2460.5,1301.5 Z"/></g>
<g><path style="opacity:0.086" fill="#252525" d="M 1212.5,1322.5 C 1181.33,1333.67 1159.67,1354.67 1147.5,1385.5C 1146.23,1386.09 1145.23,1386.09 1144.5,1385.5C 1156.97,1353.2 1179.47,1331.2 1212,1319.5C 1213.68,1320.18 1213.85,1321.18 1212.5,1322.5 Z"/></g>
<g><path style="opacity:0.189" fill="#2e2e2e" d="M 961.5,1296.5 C 972.674,1297.17 984.007,1297.83 995.5,1298.5C 939.837,1299.5 884.171,1299.83 828.5,1299.5C 828.5,1394.83 828.5,1490.17 828.5,1585.5C 886.167,1585.5 943.833,1585.5 1001.5,1585.5C 1001.82,1579.64 1001.49,1573.98 1000.5,1568.5C 950.668,1567.67 900.668,1567.17 850.5,1567C 851.066,1566.01 851.733,1565.17 852.5,1564.5C 853.912,1565.53 855.578,1566.2 857.5,1566.5C 906.519,1566.04 955.519,1566.04 1004.5,1566.5C 1005.13,1573.91 1004.46,1580.91 1002.5,1587.5C 945.539,1588.34 888.539,1588.34 831.5,1587.5C 829.833,1587.5 828.167,1587.5 826.5,1587.5C 825.083,1584 824.416,1580.33 824.5,1576.5C 825.934,1528.84 826.601,1481.01 826.5,1433C 826.668,1390.66 826.002,1348.49 824.5,1306.5C 824.316,1302.92 824.983,1299.59 826.5,1296.5C 871.5,1296.5 916.5,1296.5 961.5,1296.5 Z"/></g>
<g><path style="opacity:0.438" fill="#404040" d="M 1546.5,1317.5 C 1546.5,1317.17 1546.5,1316.83 1546.5,1316.5C 1548.5,1405.16 1549.16,1494.16 1548.5,1583.5C 1547.83,1494.83 1547.17,1406.17 1546.5,1317.5 Z"/></g>
<g><path style="opacity:0.061" fill="#242424" d="M 1220.5,1320.5 C 1218.71,1319.69 1216.71,1319.19 1214.5,1319C 1266.81,1303.12 1311.65,1314.95 1349,1354.5C 1353,1350.5 1357,1346.5 1361,1342.5C 1361.67,1341.83 1361.67,1341.17 1361,1340.5C 1356.13,1335.3 1350.97,1330.47 1345.5,1326C 1304.52,1295.87 1259.35,1287.71 1210,1301.5C 1208.54,1301.19 1207.37,1300.53 1206.5,1299.5C 1227.27,1293.41 1248.6,1291.24 1270.5,1293C 1299.01,1295.26 1324.34,1305.43 1346.5,1323.5C 1351.54,1328.38 1356.71,1333.05 1362,1337.5C 1362.82,1340.23 1362.65,1342.89 1361.5,1345.5C 1357.49,1349.68 1353.32,1353.68 1349,1357.5C 1338.56,1347.46 1327.39,1338.3 1315.5,1330C 1310.54,1328.19 1305.87,1325.85 1301.5,1323C 1296.34,1321.83 1291.34,1320.17 1286.5,1318C 1265.81,1314.68 1245.14,1314.68 1224.5,1318C 1223.02,1318.66 1221.68,1319.5 1220.5,1320.5 Z"/></g>
<g><path style="opacity:0.176" fill="#6d7127" d="M 2338.5,1241.5 C 2337.37,1243.31 2336.7,1245.31 2336.5,1247.5C 2294.34,1306.37 2252.01,1365.37 2209.5,1424.5C 2208.39,1424.56 2207.39,1424.89 2206.5,1425.5C 2250.01,1363.81 2294.01,1302.47 2338.5,1241.5 Z"/></g>
<g><path style="opacity:0.067" fill="#3f3f27" d="M 2360.5,1322.5 C 2360.17,1323.17 2359.83,1323.83 2359.5,1324.5C 2320.24,1344.82 2298.24,1377.15 2293.5,1421.5C 2291.82,1420.82 2291.16,1419.48 2291.5,1417.5C 2292.58,1406.84 2295.08,1396.51 2299,1386.5C 2310.19,1356.14 2330.69,1334.81 2360.5,1322.5 Z"/></g>
<g><path style="opacity:0.443" fill="#404123" d="M 2365.5,1298.5 C 2367.15,1298.66 2368.49,1299.33 2369.5,1300.5C 2336.63,1308.56 2310.8,1326.56 2292,1354.5C 2273.8,1385.64 2265.97,1419.31 2268.5,1455.5C 2268.63,1456.24 2268.46,1456.91 2268,1457.5C 2267.33,1456.75 2266.5,1456.41 2265.5,1456.5C 2265.33,1445.49 2265.5,1434.49 2266,1423.5C 2271.34,1366.33 2300.17,1325.83 2352.5,1302C 2356.66,1300.34 2360.99,1299.17 2365.5,1298.5 Z"/></g>
<g><path style="opacity:0.088" fill="#111111" d="M 1571.5,1364.5 C 1571.5,1432.17 1571.5,1499.83 1571.5,1567.5C 1570.67,1571.98 1570.17,1576.65 1570,1581.5C 1569.83,1549 1569.67,1516.5 1569.5,1484C 1569.88,1446.97 1569.88,1409.97 1569.5,1373C 1569.36,1369.85 1570.03,1367.02 1571.5,1364.5 Z"/></g>
<g><path style="opacity:0.154" fill="#2c2c2c" d="M 1920.5,1303.5 C 1920.41,1304.5 1920.75,1305.33 1921.5,1306C 1912.02,1303.55 1902.35,1301.55 1892.5,1300C 1854.17,1299.5 1815.83,1299.33 1777.5,1299.5C 1777.5,1394.83 1777.5,1490.17 1777.5,1585.5C 1784.17,1585.5 1790.83,1585.5 1797.5,1585.5C 1797.5,1545.17 1797.5,1504.83 1797.5,1464.5C 1827.5,1464.33 1857.5,1464.5 1887.5,1465C 1890.09,1468.74 1892.42,1472.57 1894.5,1476.5C 1892.67,1474.87 1890.84,1473.2 1889,1471.5C 1888.6,1471.73 1888.43,1472.06 1888.5,1472.5C 1887.93,1470.58 1886.93,1468.91 1885.5,1467.5C 1856.85,1465.51 1827.85,1464.84 1798.5,1465.5C 1798.33,1500.83 1798.5,1536.17 1799,1571.5C 1798.99,1575.35 1799.49,1577.68 1800.5,1578.5C 1802.66,1584.18 1800.66,1587.51 1794.5,1588.5C 1788.21,1587.58 1781.87,1587.25 1775.5,1587.5C 1774.85,1585.17 1774.18,1582.84 1773.5,1580.5C 1774.83,1488.84 1774.83,1397.17 1773.5,1305.5C 1774.18,1302.49 1774.85,1299.49 1775.5,1296.5C 1815.83,1296.33 1856.17,1296.5 1896.5,1297C 1904.68,1298.9 1912.68,1301.07 1920.5,1303.5 Z"/></g>
<g><path style="opacity:0.161" fill="#252525" d="M 1925.5,1306.5 C 1927.2,1306.34 1928.87,1306.51 1930.5,1307C 1965.91,1328.17 1980.41,1359.34 1974,1400.5C 1968.09,1424.95 1953.92,1443.28 1931.5,1455.5C 1926.75,1457.97 1921.75,1459.64 1916.5,1460.5C 1915.13,1460.66 1913.79,1460.49 1912.5,1460C 1946.08,1450.09 1965.92,1427.92 1972,1393.5C 1975.78,1352.88 1959.28,1324.05 1922.5,1307C 1923.45,1306.52 1924.45,1306.35 1925.5,1306.5 Z"/></g>
<g><path style="opacity:0.263" fill="#242424" d="M 1546.5,1317.5 C 1547.17,1406.17 1547.83,1494.83 1548.5,1583.5C 1554.75,1585.46 1561.42,1586.13 1568.5,1585.5C 1568.33,1497.83 1568.5,1410.17 1569,1322.5C 1569.33,1324.83 1569.67,1327.17 1570,1329.5C 1570.38,1330.06 1570.88,1330.39 1571.5,1330.5C 1571.5,1341.83 1571.5,1353.17 1571.5,1364.5C 1570.03,1367.02 1569.36,1369.85 1569.5,1373C 1569.88,1409.97 1569.88,1446.97 1569.5,1484C 1569.67,1516.5 1569.83,1549 1570,1581.5C 1570.17,1576.65 1570.67,1571.98 1571.5,1567.5C 1571.81,1574.09 1571.48,1580.59 1570.5,1587C 1568.44,1587.31 1566.44,1587.81 1564.5,1588.5C 1558.37,1587.87 1552.37,1587.2 1546.5,1586.5C 1546.5,1496.83 1546.5,1407.17 1546.5,1317.5 Z"/></g>
<g><path style="opacity:0.191" fill="#292929" d="M 295.5,1296.5 C 336.168,1296.33 376.835,1296.5 417.5,1297C 418.48,1304.08 418.813,1311.25 418.5,1318.5C 368.595,1318.83 318.762,1318.5 269,1317.5C 268.5,1354.17 268.333,1390.83 268.5,1427.5C 314.835,1427.33 361.168,1427.5 407.5,1428C 408,1428.5 408.5,1429 409,1429.5C 409.499,1435.16 409.666,1440.82 409.5,1446.5C 408.883,1446.61 408.383,1446.94 408,1447.5C 408.126,1441.41 407.292,1435.75 405.5,1430.5C 359.67,1429.5 313.67,1429.17 267.5,1429.5C 267.5,1391.83 267.5,1354.17 267.5,1316.5C 317.167,1316.5 366.833,1316.5 416.5,1316.5C 416.5,1310.83 416.5,1305.17 416.5,1299.5C 360.496,1299.83 304.496,1299.5 248.5,1298.5C 264.328,1297.83 279.995,1297.17 295.5,1296.5 Z"/></g>
<g><path style="opacity:0.501" fill="#525252" d="M 267.5,1316.5 C 267.5,1354.17 267.5,1391.83 267.5,1429.5C 313.67,1429.17 359.67,1429.5 405.5,1430.5C 359.167,1430.5 312.833,1430.5 266.5,1430.5C 266.168,1392.33 266.501,1354.33 267.5,1316.5 Z"/></g>
<g><path style="opacity:0.102" fill="#272727" d="M 1144.5,1391.5 C 1141.65,1402.02 1139.48,1412.69 1138,1423.5C 1137.33,1435.83 1137.33,1448.17 1138,1460.5C 1139.41,1472.08 1141.91,1483.42 1145.5,1494.5C 1144.78,1494.92 1144.28,1495.58 1144,1496.5C 1131.37,1460.15 1131.37,1423.82 1144,1387.5C 1144.49,1388.79 1144.66,1390.13 1144.5,1391.5 Z"/></g>
<g><path style="opacity:0.117" fill="#111111" d="M 1799.5,1320.5 C 1800.8,1361.8 1800.8,1403.14 1799.5,1444.5C 1823.83,1444.5 1848.17,1444.5 1872.5,1444.5C 1874.29,1445.31 1876.29,1445.81 1878.5,1446C 1852.12,1446.82 1825.79,1446.66 1799.5,1445.5C 1798.17,1403.67 1798.17,1362 1799.5,1320.5 Z"/></g>
<g><path style="opacity:0.317" fill="#373737" d="M 851.5,1563.5 C 852.167,1563.5 852.5,1563.83 852.5,1564.5C 851.733,1565.17 851.066,1566.01 850.5,1567C 900.668,1567.17 950.668,1567.67 1000.5,1568.5C 949.833,1568.5 899.167,1568.5 848.5,1568.5C 848.5,1528.17 848.5,1487.83 848.5,1447.5C 895.168,1447.33 941.835,1447.5 988.5,1448C 942.168,1448.5 895.835,1448.67 849.5,1448.5C 849.333,1486.5 849.5,1524.5 850,1562.5C 850.383,1563.06 850.883,1563.39 851.5,1563.5 Z"/></g>
<g><path style="opacity:0.005" fill="#0f0f0f" d="M 1885.5,1467.5 C 1856.83,1467.5 1828.17,1467.5 1799.5,1467.5C 1800.44,1504.49 1800.77,1541.49 1800.5,1578.5C 1799.49,1577.68 1798.99,1575.35 1799,1571.5C 1798.5,1536.17 1798.33,1500.83 1798.5,1465.5C 1827.85,1464.84 1856.85,1465.51 1885.5,1467.5 Z"/></g>
<g><path style="opacity:0.157" fill="#7c8029" d="M 2209.5,1424.5 C 2152.83,1503.48 2096.17,1582.48 2039.5,1661.5C 2039.63,1659.78 2039.96,1658.12 2040.5,1656.5C 2095.1,1578.96 2150.43,1501.96 2206.5,1425.5C 2207.39,1424.89 2208.39,1424.56 2209.5,1424.5 Z"/></g>
<g><path style="opacity:0.235" fill="#222221" d="M 1914.5,1466.5 C 1932.76,1493.37 1950.76,1520.37 1968.5,1547.5C 1967.83,1547.5 1967.17,1547.5 1966.5,1547.5C 1947.69,1519.9 1928.86,1492.23 1910,1464.5C 1907.5,1461.9 1908,1460.57 1911.5,1460.5C 1911.03,1463.39 1912.03,1465.39 1914.5,1466.5 Z"/></g>
<g><path style="opacity:0.204" fill="#212120" d="M 1894.5,1476.5 C 1915.33,1506.82 1935.66,1537.48 1955.5,1568.5C 1955.5,1569.83 1955.5,1571.17 1955.5,1572.5C 1933.66,1538.97 1911.33,1505.63 1888.5,1472.5C 1888.43,1472.06 1888.6,1471.73 1889,1471.5C 1890.84,1473.2 1892.67,1474.87 1894.5,1476.5 Z"/></g>
<g><path style="opacity:0.22" fill="#232323" d="M 1147.5,1498.5 C 1163.96,1538.77 1193.79,1562.11 1237,1568.5C 1275.57,1573.56 1309.07,1563.39 1337.5,1538C 1343.6,1532.76 1348.27,1526.59 1351.5,1519.5C 1354.25,1519.19 1356.91,1519.52 1359.5,1520.5C 1363.57,1524.62 1367.74,1528.62 1372,1532.5C 1372.67,1533.5 1372.67,1534.5 1372,1535.5C 1366.99,1541.01 1362.16,1546.68 1357.5,1552.5C 1351.48,1557.53 1345.48,1562.53 1339.5,1567.5C 1332.23,1571.73 1324.9,1575.9 1317.5,1580C 1312.52,1581.82 1307.52,1583.32 1302.5,1584.5C 1300.8,1584.66 1299.13,1584.49 1297.5,1584C 1327,1575.15 1351,1558.48 1369.5,1534C 1365.47,1529.63 1361.13,1525.63 1356.5,1522C 1355.67,1521.31 1355,1521.48 1354.5,1522.5C 1332.72,1551.4 1303.72,1567.9 1267.5,1572C 1209.09,1576.15 1168.09,1551.65 1144.5,1498.5C 1145.23,1497.91 1146.23,1497.91 1147.5,1498.5 Z"/></g>
<g><path style="opacity:0.077" fill="#222222" d="M 2291.5,1417.5 C 2291.16,1419.48 2291.82,1420.82 2293.5,1421.5C 2288.67,1458.82 2296.34,1493.49 2316.5,1525.5C 2338.68,1553.01 2367.52,1567.68 2403,1569.5C 2446.72,1570.54 2481.56,1554.04 2507.5,1520C 2510.52,1519.23 2513.18,1519.89 2515.5,1522C 2518.36,1525.28 2521.53,1528.11 2525,1530.5C 2525.61,1532.88 2525.95,1535.21 2526,1537.5C 2489.61,1579.95 2443.44,1597.78 2387.5,1591C 2353.58,1586.77 2324.74,1572.27 2301,1547.5C 2279.99,1520.61 2268.16,1490.28 2265.5,1456.5C 2266.5,1456.41 2267.33,1456.75 2268,1457.5C 2268.46,1456.91 2268.63,1456.24 2268.5,1455.5C 2269.33,1463.4 2270.5,1471.4 2272,1479.5C 2290.14,1550.96 2336.14,1587.63 2410,1589.5C 2457.38,1589.56 2495.55,1571.06 2524.5,1534C 2520.28,1529.28 2515.61,1525.11 2510.5,1521.5C 2485.46,1555.19 2451.79,1572.19 2409.5,1572.5C 2365.24,1572.35 2331.41,1553.68 2308,1516.5C 2291.67,1485.18 2286.17,1452.18 2291.5,1417.5 Z"/></g>
<g><path style="opacity:0.112" fill="#282828" d="M 1204.5,1300.5 C 1205.26,1301.27 1206.26,1301.77 1207.5,1302C 1176.63,1311.88 1152.46,1330.38 1135,1357.5C 1120.43,1383.1 1113.26,1411.1 1113.5,1441.5C 1112.26,1487.67 1128.26,1526.5 1161.5,1558C 1201.6,1587.93 1246.1,1596.76 1295,1584.5C 1296.68,1585.18 1296.85,1586.18 1295.5,1587.5C 1260.11,1595.91 1225.11,1593.41 1190.5,1580C 1157,1563.08 1133.5,1537.25 1120,1502.5C 1113.82,1482.88 1110.32,1462.71 1109.5,1442C 1109.82,1409.88 1118.15,1380.04 1134.5,1352.5C 1147.95,1334.45 1164.28,1319.62 1183.5,1308C 1188.25,1306.79 1192.59,1304.79 1196.5,1302C 1199.21,1301.6 1201.87,1301.1 1204.5,1300.5 Z"/></g>
<g><path style="opacity:0.102" fill="#53562b" d="M 1966.5,1547.5 C 1967.17,1547.5 1967.83,1547.5 1968.5,1547.5C 1976.2,1558.71 1984.2,1569.71 1992.5,1580.5C 1993.47,1582.74 1993.81,1585.08 1993.5,1587.5C 1991.52,1587.38 1989.85,1588.05 1988.5,1589.5C 1987.5,1589 1986.5,1588.5 1985.5,1588C 1978.5,1587.67 1971.5,1587.33 1964.5,1587C 1961.63,1582.08 1958.63,1577.25 1955.5,1572.5C 1955.5,1571.17 1955.5,1569.83 1955.5,1568.5C 1959.6,1573.84 1963.6,1579.34 1967.5,1585C 1975.5,1585.67 1983.5,1585.67 1991.5,1585C 1982.94,1572.62 1974.61,1560.12 1966.5,1547.5 Z"/></g>
<g><path style="opacity:0.09" fill="#2c2c2c" d="M 418.5,1568.5 C 368.336,1567.5 318.003,1567.17 267.5,1567.5C 267.173,1527.43 267.506,1487.43 268.5,1447.5C 314.845,1446.84 360.845,1447.5 406.5,1449.5C 360.5,1449.5 314.5,1449.5 268.5,1449.5C 268.173,1487.88 268.506,1526.21 269.5,1564.5C 271.847,1565.71 274.347,1566.38 277,1566.5C 324.544,1565.36 372.377,1565.2 420.5,1566C 421.416,1566.37 422.25,1566.87 423,1567.5C 423.667,1573.83 423.667,1580.17 423,1586.5C 421.989,1587.34 420.822,1587.67 419.5,1587.5C 362.347,1588.76 305.347,1588.76 248.5,1587.5C 247.167,1587.5 245.833,1587.5 244.5,1587.5C 244.5,1586.5 244.5,1585.5 244.5,1584.5C 245.333,1490 245.833,1395.33 246,1300.5C 246.5,1395.5 246.667,1490.5 246.5,1585.5C 304.167,1585.5 361.833,1585.5 419.5,1585.5C 419.822,1579.64 419.489,1573.98 418.5,1568.5 Z"/></g>
<g><path style="opacity:0.416" fill="#484848" d="M 268.5,1447.5 C 267.506,1487.43 267.173,1527.43 267.5,1567.5C 318.003,1567.17 368.336,1567.5 418.5,1568.5C 367.833,1568.5 317.167,1568.5 266.5,1568.5C 265.839,1527.82 266.506,1487.49 268.5,1447.5 Z"/></g>
<g><path style="opacity:0.128" fill="#292929" d="M 574.5,1300.5 C 575.333,1388.33 575.833,1476.33 576,1564.5C 576.383,1563.94 576.883,1563.61 577.5,1563.5C 622.156,1565.33 667.156,1566.16 712.5,1566C 713.766,1566.31 714.933,1566.81 716,1567.5C 716.667,1573.83 716.667,1580.17 716,1586.5C 715.722,1587.42 715.222,1588.08 714.5,1588.5C 661.377,1588.24 608.377,1587.9 555.5,1587.5C 607.823,1585.5 660.489,1584.84 713.5,1585.5C 713.5,1579.83 713.5,1574.17 713.5,1568.5C 667.167,1568.5 620.833,1568.5 574.5,1568.5C 574.5,1479.17 574.5,1389.83 574.5,1300.5 Z"/></g>
<g><path style="opacity:0.005" fill="#000000" d="M 248.5,1587.5 C 305.347,1588.76 362.347,1588.76 419.5,1587.5C 393.008,1588.83 366.175,1589.5 339,1589.5C 312.167,1589.33 285.333,1589.17 258.5,1589C 254.975,1588.82 251.641,1588.32 248.5,1587.5 Z"/></g>
<g><path style="opacity:0.005" fill="#000000" d="M 555.5,1587.5 C 608.377,1587.9 661.377,1588.24 714.5,1588.5C 687.904,1589.16 661.238,1589.5 634.5,1589.5C 607.825,1589.5 581.491,1588.83 555.5,1587.5 Z"/></g>
<g><path style="opacity:0.007" fill="#000000" d="M 831.5,1587.5 C 888.539,1588.34 945.539,1588.34 1002.5,1587.5C 1002.39,1588.12 1002.06,1588.62 1001.5,1589C 946.833,1589.67 892.167,1589.67 837.5,1589C 835.292,1588.81 833.292,1588.31 831.5,1587.5 Z"/></g>
<g><path style="opacity:0.18" fill="#6d7229" d="M 2040.5,1656.5 C 2039.96,1658.12 2039.63,1659.78 2039.5,1661.5C 2005.11,1709.67 1970.78,1757.67 1936.5,1805.5C 1936.5,1804.17 1936.5,1802.83 1936.5,1801.5C 1970.43,1752.63 2005.1,1704.3 2040.5,1656.5 Z"/></g>
<g><path style="opacity:0.165" fill="#4c4d22" d="M 2024.5,1587.5 C 2025.17,1587.5 2025.83,1587.5 2026.5,1587.5C 1974.91,1670.35 1922.58,1752.68 1869.5,1834.5C 1869.5,1833.83 1869.5,1833.17 1869.5,1832.5C 1920.62,1750.4 1972.29,1668.74 2024.5,1587.5 Z"/></g>
<g><path style="opacity:0.2" fill="#5d5f2a" d="M 1936.5,1801.5 C 1936.5,1802.83 1936.5,1804.17 1936.5,1805.5C 1913.11,1836.6 1890.44,1868.27 1868.5,1900.5C 1867.36,1901.83 1866.02,1902.83 1864.5,1903.5C 1864.5,1902.83 1864.5,1902.17 1864.5,1901.5C 1888.02,1867.78 1912.02,1834.44 1936.5,1801.5 Z"/></g>
<g><path style="opacity:0.427" fill="#3f401f" d="M 1869.5,1832.5 C 1869.5,1833.17 1869.5,1833.83 1869.5,1834.5C 1833.86,1891.15 1798.19,1947.82 1762.5,2004.5C 1761.66,2004.16 1761.33,2003.49 1761.5,2002.5C 1782.43,1968.39 1803.6,1934.39 1825,1900.5C 1840.06,1877.95 1854.89,1855.28 1869.5,1832.5 Z"/></g>
<g><path style="opacity:0.235" fill="#4a4b26" d="M 1864.5,1901.5 C 1864.5,1902.17 1864.5,1902.83 1864.5,1903.5C 1863.96,1905.58 1863.12,1907.58 1862,1909.5C 1834.63,1947.04 1807.46,1984.7 1780.5,2022.5C 1779.45,2022.65 1778.45,2022.48 1777.5,2022C 1806.36,1981.65 1835.36,1941.49 1864.5,1901.5 Z"/></g>
<g><path style="opacity:0.263" fill="#2a2a27" d="M 1777.5,2025.5 C 1754.93,2058.24 1731.77,2090.57 1708,2122.5C 1685.49,2154.19 1662.99,2185.86 1640.5,2217.5C 1637.54,2221.25 1633.88,2222.25 1629.5,2220.5C 1628.7,2219.58 1628.53,2218.58 1629,2217.5C 1631.48,2220.68 1634.15,2221.02 1637,2218.5C 1683.28,2153.22 1729.95,2088.22 1777,2023.5C 1777.46,2024.09 1777.63,2024.76 1777.5,2025.5 Z"/></g>
<g><path style="opacity:0.067" fill="#242421" d="M 1761.5,2002.5 C 1761.33,2003.49 1761.66,2004.16 1762.5,2004.5C 1717.84,2073.8 1673.68,2143.47 1630,2213.5C 1628.63,2215.04 1627.13,2216.37 1625.5,2217.5C 1625.34,2216.13 1625.51,2214.79 1626,2213.5C 1670.73,2142.67 1715.89,2072.33 1761.5,2002.5 Z"/></g>
</svg>
