<?xml version="1.0" encoding="UTF-8"?><svg xmlns="http://www.w3.org/2000/svg" viewBox="0 0 107.74 51.67"><defs><style>.cls-1{fill:#908f8f;}.cls-2{fill:#e0e0e0;}</style></defs><g id="Layer_2"><rect width="107.74" height="51.67"/></g><g id="Layer_1"><path class="cls-1" d="m5.28,27.67h2.4l2.63,8.12h-1.92l-.56-1.81h-2.94l-.56,1.81h-1.73l2.67-8.12Zm.01,5.01h2.15l-1.07-3.51-1.08,3.51Z"/><path class="cls-1" d="m13.79,32.62v-4.95h1.85v4.84c0,1.35.4,1.94,1.51,1.94s1.57-.52,1.57-2.01v-4.77h1.85v4.88c0,2.21-1.24,3.36-3.43,3.36s-3.35-1.14-3.35-3.29Z"/><path class="cls-1" d="m26.68,29.1h-2.19v-1.43h6.23v1.43h-2.19v6.69h-1.85v-6.69Z"/><path class="cls-1" d="m34.7,27.67h1.84v3.31h3.26v-3.31h1.84v8.12h-1.84v-3.35h-3.26v3.35h-1.84v-8.12Z"/><path class="cls-1" d="m45.79,31.78v-.09c0-2.42,1.77-4.13,4.18-4.13s4.18,1.65,4.18,4.09v.09c0,2.42-1.66,4.18-4.19,4.18s-4.17-1.76-4.17-4.13Zm6.44-.02v-.09c0-1.58-.84-2.66-2.26-2.66s-2.26,1.03-2.26,2.67v.09c0,1.66.95,2.68,2.28,2.68s2.24-1.06,2.24-2.69Z"/><path class="cls-1" d="m58.31,27.67h2.91c1.92,0,3.13.78,3.13,2.46v.05c0,1.23-.72,1.87-1.67,2.16l2.15,3.45h-1.95l-1.94-3.13h-.8v3.13h-1.83v-8.12Zm2.86,3.73c.92,0,1.39-.39,1.39-1.17v-.05c0-.83-.5-1.11-1.39-1.11h-1.03v2.33h1.03Z"/><path class="cls-1" d="m68.82,27.67h1.85v8.12h-1.85v-8.12Z"/><path class="cls-1" d="m74.63,35.56l3.87-6.46h-3.44v-1.43h6.04v.22l-3.79,6.46h3.66v1.44h-6.33v-.23Z"/><path class="cls-1" d="m85.12,27.67h5.29v1.43h-3.46v1.9h2.77v1.34h-2.77v2.02h3.64v1.43h-5.47v-8.12Z"/><path class="cls-1" d="m94.71,27.67h2.66c2.85,0,4.26,1.54,4.26,3.97v.09c0,2.43-1.42,4.05-4.27,4.05h-2.65v-8.12Zm2.59,6.69c1.63,0,2.41-.92,2.41-2.6v-.09c0-1.67-.72-2.57-2.43-2.57h-.73v5.26h.75Z"/><path class="cls-2" d="m20.42,3.51c.82,0,.93.32.93,1.13,0,.69-.11,1.11-.93,1.11h-7.05c-2.66,0-4.55-.16-4.55,1.54,0,1.48.74,1.51,4.66,1.7,5.68.25,8.72.49,8.72,5.1,0,4.11-3.04,5.1-9.93,5.1H4.07c-.82,0-.93-.33-.93-1.15,0-.7.11-1.13.93-1.13h7.71c2.99,0,5.21.16,5.21-1.7,0-1.64-.9-1.67-5.32-1.86-6.23-.25-8.34-1.04-8.34-5.26S7.61,3.51,12.66,3.51h7.76Zm10.26,0c-2.15,0-2.54.42-2.54,2.09v11.71c0,1.67.39,1.86,2.54,1.86h.68c2.03,0,2.46-.2,2.46-1.86V6.64c0-.65.25-.99,1.04-.99h3.9c2.2,0,3.7.42,3.7,2.85s-1.21,2.79-3.11,2.85c0,0-1.06.05-1.4.05-.31,0-.9-.05-.9,1.06s.63,1.06.96,1.06c.44,0,1.91.01,1.91.01,4.72.03,8.53-.73,8.53-5.11s-3.42-4.91-7.4-4.91h-10.37Zm67.55.96v11.51c0,.79-.17,1.05-.85,1.05-.62,0-.85-.11-1.39-.99l-6.21-10.77c-.71-1.16-1.62-1.75-3.18-1.75h-5.08c-1.76,0-2.55.54-2.55,2.21v12.53c0,.85.6.96,1.56.96,1.14,0,1.59-.11,1.59-.96V6.73c0-.79.17-1.05.85-1.05.62,0,.85.11,1.39.99l6.21,10.77c.71,1.16,1.62,1.75,3.18,1.75h5.08c1.76,0,2.55-.54,2.55-2.21V4.47c0-.85-.45-.96-1.59-.96-.96,0-1.56.11-1.56.96m-38.68-.96c-1.56,0-2.1.28-2.75,1.47l-7.13,13.01c-.48.9-.06,1.19,1.27,1.19,1.93,0,1.78-.06,3.48-3.27l2.1-4.04,2.94-5.62c.28-.51.57-.59,1.16-.59h.28c.6,0,.91.08,1.16.59l2.86,5.62c.2.4.06.79-.54.79h0-4.13c-.76,0-1.01.43-1.39,1.14s-.21,1.14.23,1.14h6.42c.93,0,1.08.23,1.39.96,1.39,3.25,1.33,3.27,5.15,3.27,2.66,0,3-.42,2.07-2.14l-6.68-12.05c-.65-1.16-1.19-1.47-2.75-1.47h-5.15Zm43.12,1.26c0,.22.05.43.16.62.11.19.26.35.46.46.2.12.41.17.64.17s.45-.06.64-.17c.2-.12.35-.27.45-.46.11-.19.16-.4.16-.62s-.06-.44-.17-.63c-.11-.2-.27-.35-.46-.46-.2-.11-.4-.17-.63-.17s-.44.06-.63.17c-.2.11-.35.27-.46.46-.11.2-.17.4-.17.63m.18,0c0-.2.05-.38.15-.54.1-.17.23-.3.4-.39.17-.1.35-.15.54-.15s.38.05.54.15c.17.1.3.23.39.4.1.17.15.35.15.54s-.05.38-.15.54c-.1.17-.23.3-.4.39-.17.1-.35.15-.54.15s-.37-.05-.54-.14c-.17-.1-.3-.23-.4-.4-.1-.17-.15-.35-.15-.54m1.59-.3c0-.15-.04-.26-.13-.33-.09-.07-.22-.11-.41-.11h-.44v1.49h.25v-.59h.23l.35.59h.28l-.4-.66c.09-.03.15-.08.2-.15.05-.07.07-.15.07-.24m-.73-.23h.18c.1,0,.18.02.23.05.05.04.07.1.07.18,0,.07-.03.13-.08.18-.05.05-.13.07-.22.07h-.18v-.48Z"/><path class="cls-2" d="m3.14,40.75h1.85v8.1h-1.85v-8.1Z"/><path class="cls-2" d="m11.67,40.75h2.13l3.08,5.33v-5.33h1.63v8.1h-1.83l-3.37-5.76v5.76h-1.63v-8.1Z"/><path class="cls-2" d="m24.64,46.31h1.75c.08.72.38,1.32,1.58,1.32.8,0,1.34-.44,1.34-1.08s-.34-.87-1.53-1.05c-2.07-.27-2.92-.89-2.92-2.46,0-1.38,1.15-2.41,2.94-2.41s2.89.81,3.03,2.42h-1.69c-.11-.74-.54-1.08-1.35-1.08s-1.21.37-1.21.92c0,.58.26.85,1.51,1.03,1.96.25,2.97.78,2.97,2.46,0,1.44-1.18,2.58-3.09,2.58-2.22,0-3.24-1.04-3.34-2.66Z"/><path class="cls-2" d="m38.65,42.17h-2.19v-1.43h6.22v1.43h-2.18v6.67h-1.85v-6.67Z"/><path class="cls-2" d="m49.95,40.75h2.39l2.63,8.1h-1.91l-.55-1.8h-2.93l-.55,1.8h-1.72l2.66-8.1Zm.01,4.99h2.14l-1.06-3.5-1.08,3.5Z"/><path class="cls-2" d="m60.97,40.75h1.83v6.66h3.29v1.44h-5.13v-8.1Z"/><path class="cls-2" d="m72.21,40.75h1.83v6.66h3.29v1.44h-5.13v-8.1Z"/><path class="cls-2" d="m83.44,40.75h5.28v1.43h-3.45v1.89h2.76v1.34h-2.76v2.01h3.63v1.43h-5.46v-8.1Z"/><path class="cls-2" d="m95.07,40.75h2.9c1.91,0,3.12.78,3.12,2.46v.05c0,1.22-.71,1.87-1.67,2.15l2.14,3.44h-1.95l-1.94-3.12h-.79v3.12h-1.82v-8.1Zm2.85,3.73c.92,0,1.38-.38,1.38-1.17v-.05c0-.83-.5-1.11-1.38-1.11h-1.03v2.32h1.03Z"/></g></svg>