<svg width="1144" height="169" viewBox="0 0 1144 169" fill="none" xmlns="http://www.w3.org/2000/svg">
<path d="M193.704 0C202.936 0 204.149 3.47017 204.149 12.1836C204.149 19.5799 202.909 24.1392 193.704 24.1392H116.212L114.682 24.1899C84.8511 24.1899 63.6449 22.4168 63.6449 40.7049C63.6449 56.6373 71.9533 56.9412 115.922 58.993C179.567 61.6526 213.697 64.3122 213.697 113.857C213.697 158.108 179.567 168.721 102.391 168.721H10.4448C1.21329 168.721 0 165.201 0 156.386C0 148.888 1.23967 144.253 10.4448 144.253H96.8521C130.349 144.253 155.248 146.001 155.248 125.939C155.248 108.234 145.12 107.955 95.6125 105.878C25.822 103.244 2.16282 94.7079 2.16282 49.2663C2.16282 3.82479 50.1141 0 106.69 0H193.704ZM308.677 0C284.595 0 280.164 4.55935 280.164 22.4928V148.559C280.164 166.492 284.595 168.62 308.677 168.62H316.273C339.088 168.62 343.836 166.492 343.836 148.559V33.7392C343.836 26.7482 346.684 23.1007 355.547 23.1007H399.251C423.939 23.1007 440.741 27.6601 440.741 53.775C440.741 79.89 427.131 83.8668 405.924 84.4493C405.924 84.4493 394.055 84.9559 390.204 84.9559C386.723 84.9559 380.102 84.4493 380.102 96.329C380.102 108.209 387.198 107.727 390.864 107.727C395.77 107.727 412.255 107.854 412.255 107.854C465.138 108.158 507.867 99.9511 507.867 52.8632C507.867 5.77518 469.543 0 424.889 0H308.677ZM1066.03 10.3599V134.273C1066.03 142.809 1064.13 145.545 1056.48 145.545C1049.5 145.545 1046.94 144.329 1040.9 134.881L971.238 18.8707C963.273 6.38309 953.092 0 935.604 0H878.659C858.93 0 850.015 5.80051 850.015 23.7593V158.64C850.015 167.759 856.714 169 867.528 169C880.268 169 885.332 167.784 885.332 158.64V34.7017C885.332 26.1656 887.231 23.43 894.88 23.43C901.87 23.43 904.428 24.6458 910.468 34.0938L980.153 150.104C988.092 162.592 998.3 168.975 1015.79 168.975H1072.73C1092.46 168.975 1101.35 163.174 1101.35 145.215V10.3599C1101.35 1.24116 1096.26 0 1083.55 0C1072.73 0 1066.06 1.21583 1066.06 10.3599M632.361 0C614.9 0 608.86 3.03957 601.554 15.8058L521.556 155.854C516.149 165.58 520.923 168.62 535.826 168.62C557.427 168.62 555.818 168.012 574.862 133.386L598.363 89.9459L631.385 29.4838C634.55 24.0126 637.742 23.1007 644.389 23.1007H647.554C654.227 23.1007 657.708 24.0126 660.583 29.4838L692.656 89.9459C694.872 94.2013 693.289 98.4567 686.616 98.4567H640.379C631.886 98.4567 629.011 103.041 624.765 110.767C620.518 118.493 622.391 123.077 627.323 123.077H699.303C709.774 123.077 711.383 125.509 714.865 133.412C730.427 168.341 729.794 168.645 772.628 168.645C802.459 168.645 806.284 164.086 795.812 145.57L720.905 15.8311C713.599 3.36885 707.559 0.0253297 690.098 0.0253297H632.335L632.361 0ZM1115.8 13.5514C1115.8 15.9324 1116.41 18.1614 1117.62 20.2385C1118.84 22.3155 1120.55 23.9873 1122.74 25.2284C1124.93 26.4696 1127.33 27.1028 1129.92 27.1028C1132.5 27.1028 1134.9 26.4696 1137.09 25.2284C1139.28 23.9873 1140.97 22.3155 1142.18 20.2385C1143.39 18.1614 1144 15.9324 1144 13.5767C1144 11.2211 1143.37 8.89074 1142.1 6.78837C1140.83 4.686 1139.12 3.03957 1136.93 1.82374C1134.74 0.633243 1132.39 0.0253297 1129.89 0.0253297C1127.38 0.0253297 1125.01 0.633243 1122.82 1.84907C1120.63 3.0649 1118.92 4.71133 1117.65 6.8137C1116.41 8.91607 1115.78 11.1704 1115.78 13.5767M1117.76 13.5767C1117.76 11.449 1118.31 9.52398 1119.39 7.72557C1120.5 5.95249 1121.98 4.53402 1123.82 3.4955C1125.7 2.45698 1127.7 1.92506 1129.89 1.92506C1132.08 1.92506 1134.11 2.45698 1135.98 3.4955C1137.83 4.55935 1139.31 5.97782 1140.39 7.7509C1141.47 9.54931 1142.02 11.4744 1142.02 13.5767C1142.02 15.6791 1141.47 17.6295 1140.39 19.4279C1139.28 21.201 1137.8 22.6195 1135.96 23.658C1134.08 24.6965 1132.08 25.2284 1129.89 25.2284C1127.7 25.2284 1125.72 24.7218 1123.85 23.6833C1121.98 22.6448 1120.47 21.2263 1119.39 19.4026C1118.31 17.6042 1117.76 15.6538 1117.76 13.5767M1135.61 10.2839C1135.61 8.6881 1135.14 7.4976 1134.16 6.71238C1133.19 5.92716 1131.66 5.54721 1129.6 5.54721H1124.69V21.6063H1127.46V15.2232H1129.99L1133.87 21.6063H1137.01L1132.55 14.4886C1133.5 14.134 1134.27 13.5767 1134.79 12.8422C1135.32 12.1076 1135.59 11.2464 1135.59 10.2839M1127.44 7.82689H1129.41C1130.57 7.82689 1131.42 8.02953 1131.97 8.40947C1132.5 8.78942 1132.79 9.44799 1132.79 10.3345C1132.79 11.0944 1132.47 11.7277 1131.87 12.2343C1131.26 12.7409 1130.44 12.9942 1129.47 12.9942H1127.44V7.82689V7.82689Z" fill="#6F7070"/>
</svg>
